<svg width="413" height="413" viewBox="0 0 413 413" fill="none" xmlns="http://www.w3.org/2000/svg">
<ellipse cx="211" cy="192.5" rx="167" ry="166.5" fill="#FAFAFA"/>
<g filter="url(#filter0_d_85_93)">
<path d="M211.363 22.9998C117.328 22.9998 41 99.3281 41 193.362C41 287.396 117.328 363.725 211.363 363.725C305.397 363.725 381.725 287.396 381.725 193.362C381.725 99.3281 305.397 22.9998 211.363 22.9998ZM211.363 33.3248C299.811 33.3248 371.4 104.914 371.4 193.362C371.4 281.81 299.811 353.4 211.363 353.4C122.914 353.4 51.325 281.81 51.325 193.362C51.325 104.914 122.914 33.3248 211.363 33.3248ZM211.363 43.6498C205.656 43.6498 201.037 48.2678 201.037 53.9748C201.037 59.6817 205.656 64.2998 211.363 64.2998C217.069 64.2998 221.688 59.6817 221.688 53.9748C221.688 48.2678 217.069 43.6498 211.363 43.6498ZM207 94L205 174C203.891 173.819 200 176 200 176C200 176 190.712 182.009 190.712 193.362C190.712 204.716 200.009 214.012 211.363 214.012C215.174 214.012 218.703 212.903 221.768 211.088L265.246 254.526L272.526 247.246L229.088 203.768C231 200.5 231.786 195 231 189.5C230.1 183.202 224 175.5 216.5 174V94H207ZM71.975 183.037C66.268 183.037 61.65 187.655 61.65 193.362C61.65 199.069 66.268 203.687 71.975 203.687C77.682 203.687 82.3 199.069 82.3 193.362C82.3 187.655 77.682 183.037 71.975 183.037ZM211.363 183.037C217.13 183.037 221.688 187.595 221.688 193.362C221.688 199.13 217.13 203.687 211.363 203.687C205.595 203.687 201.037 199.13 201.037 193.362C201.037 187.595 205.595 183.037 211.363 183.037ZM350.75 183.037C345.043 183.037 340.425 187.655 340.425 193.362C340.425 199.069 345.043 203.687 350.75 203.687C356.457 203.687 361.075 199.069 361.075 193.362C361.075 187.655 356.457 183.037 350.75 183.037ZM211.363 322.425C205.656 322.425 201.037 327.043 201.037 332.75C201.037 338.457 205.656 343.075 211.363 343.075C217.069 343.075 221.688 338.457 221.688 332.75C221.688 327.043 217.069 322.425 211.363 322.425Z" fill="#A57D02"/>
</g>
<defs>
<filter id="filter0_d_85_93" x="35" y="20.9998" width="348.725" height="348.725" filterUnits="userSpaceOnUse" color-interpolation-filters="sRGB">
<feFlood flood-opacity="0" result="BackgroundImageFix"/>
<feColorMatrix in="SourceAlpha" type="matrix" values="0 0 0 0 0 0 0 0 0 0 0 0 0 0 0 0 0 0 127 0" result="hardAlpha"/>
<feOffset dx="-2" dy="2"/>
<feGaussianBlur stdDeviation="2"/>
<feComposite in2="hardAlpha" operator="out"/>
<feColorMatrix type="matrix" values="0 0 0 0 0.690196 0 0 0 0 0.603922 0 0 0 0 0.337255 0 0 0 0.5 0"/>
<feBlend mode="normal" in2="BackgroundImageFix" result="effect1_dropShadow_85_93"/>
<feBlend mode="normal" in="SourceGraphic" in2="effect1_dropShadow_85_93" result="shape"/>
</filter>
</defs>
</svg>
