<svg width="83" height="48" viewBox="0 0 83 48" fill="none" xmlns="http://www.w3.org/2000/svg">
<path fill-rule="evenodd" clip-rule="evenodd" d="M42.7785 6.56528V8.50956C50.455 3.91519 54.7487 9.72806 49.7653 17.1623C54.5063 25.289 48.2493 35.6163 42.7785 30.5891V38.7291C43.6424 38.8923 44.351 39.688 44.6146 40.7433C46.5308 40.174 48.2563 38.6892 49.8735 36.6983C49.6876 36.0524 49.2238 35.5397 49.0379 34.8939C50.8458 33.2991 52.4394 30.6091 53.2586 27.6128C54.1485 31.3948 53.9319 35.4399 52.1005 39.2219C51.7285 39.0155 51.3589 38.8057 50.987 38.5993C48.2916 42.4279 45.6692 44.4488 42.9951 44.8317C42.0676 45.4176 41.6768 46.5595 41.552 47.9778C41.3425 46.5063 40.8388 45.4309 39.989 44.8283C37.3219 44.4355 34.7042 42.4179 32.0159 38.5993C31.6439 38.8057 31.2743 39.0155 30.9024 39.2219C29.071 35.4399 28.8544 31.3948 29.7419 27.6128C30.5611 30.6091 32.1548 33.2991 33.9626 34.8939C33.7767 35.5397 33.3129 36.0524 33.127 36.6983C34.6594 38.586 36.2908 40.0176 38.0893 40.6468C38.4023 39.5315 39.2192 38.7258 40.1796 38.6992V27.0268C32.223 41.1628 24.0616 24.7663 40.149 10.3972C40.1585 10.3873 40.1679 10.3806 40.1796 10.3739V6.56861C39.457 5.94604 38.9744 4.82075 38.9744 3.54232C38.9744 1.59138 40.0996 0 41.4791 0C42.8585 0 43.9838 1.59138 43.9838 3.54232C43.9838 4.81742 43.4988 5.94271 42.7785 6.56528ZM42.7785 10.8866V26.2078C45.4644 33.4623 50.269 22.9119 48.0915 18.9368C43.3058 23.2182 40.7258 12.9142 48.2469 15.734C51.5284 8.959 46.7639 8.26319 42.7785 10.8866ZM40.1796 24.2502V13.2937C40.1137 13.3803 40.0478 13.4668 39.9866 13.5534C29.9914 22.8886 32.4231 35.9858 40.1796 24.2502ZM46.7992 17.5884L46.8227 17.5385C44.584 15.9538 44.5487 19.1432 46.7992 17.5884Z" fill="#FAFAFA"/>
<path fill-rule="evenodd" clip-rule="evenodd" d="M57.211 28.6182C57.3852 28.5017 57.5617 28.505 57.6041 28.6282C57.6465 28.7514 57.5358 28.9478 57.3616 29.0643C57.1874 29.1809 57.0085 29.1775 56.9685 29.0543C56.9261 28.9312 57.0344 28.7347 57.211 28.6182ZM61.9167 34.0882C63.3573 34.0815 64.7439 33.4223 65.1276 32.2338C66.4505 32.56 67.9477 31.5613 68.5315 30.3161C70.1676 30.6424 71.9425 29.6003 72.7358 27.9623C74.1812 28.0789 75.4853 27.1766 76.1939 25.4554C77.7781 24.8495 78.8845 23.2814 78.8845 22.023C80.829 21.0875 81.7353 17.9313 79.2777 19.1065C77.8417 19.7924 64.3672 20.4216 59.5462 19.1931C54.7251 17.9646 52.5594 19.4395 54.5909 25.0626C55.1724 26.887 55.4502 29.7368 55.4243 32.4036C54.791 37.0412 58.7999 37.6871 61.9167 34.0882ZM62.258 34.794C63.887 34.784 65.0522 34.4244 65.4877 32.893C66.9873 33.3158 68.3243 32.5967 68.9858 30.9886C70.8385 31.4114 72.0343 30.8821 72.9312 28.768C74.5672 28.9178 75.942 28.3252 76.7424 26.1046C78.5361 25.3223 79.433 24.1171 79.433 22.4891C81.2786 21.4736 82.2508 20.1852 81.9448 18.494C83.6632 18.2243 83.1289 14.8484 81.4504 15.4477C79.7744 16.047 64.2895 15.8239 58.7599 14.4955C53.2303 13.1705 50.4149 16.2767 52.7948 23.0584C53.9601 25.6585 54.5297 28.6815 54.4991 32.1272C53.7835 38.1166 58.727 39.4416 62.258 34.794ZM80.9561 17.7349C82.1001 17.4286 81.6929 17.0491 80.8219 17.099C76.0267 17.8647 71.2739 18.0578 66.5565 17.8814C62.7688 17.7416 59.0047 16.1535 55.2618 16.6529C53.5693 17.2189 54.5227 17.9713 55.3513 17.7316C57.2651 17.2588 61.114 18.3142 66.8554 18.6737C73.4538 19.0832 80.5842 18.0212 80.9561 17.7349ZM79.8356 20.0154C80.0639 20.1419 79.9156 20.5215 79.3859 21.1574C74.9086 21.4836 70.4548 21.7133 66.1116 21.4736C66.3611 21.7899 66.3752 22.1095 66.1563 22.4258C70.2382 22.569 74.3177 22.4358 78.3996 22.1095C78.7409 22.5224 78.4161 22.9785 77.9971 23.4412C73.9458 23.7708 69.8945 23.8041 65.8432 23.5677C66.1963 24.3934 66.1398 24.9061 65.4854 24.9627C68.6963 25.3023 72.0979 25.3788 75.5748 25.3422C75.8667 25.6785 75.636 26.1213 75.1722 26.6107C71.4788 26.5707 67.8582 26.3943 64.3649 25.9781C64.565 26.4242 64.4732 26.7405 64.0965 26.9303C66.573 27.433 69.2471 27.726 71.9896 27.9457C72.2932 28.2786 71.9519 28.5416 71.3163 28.7714C68.2961 28.6182 65.4854 28.252 62.9313 27.6294C63.0396 28.1455 63.056 28.6249 62.4393 28.8346C64.0353 29.5071 65.8691 29.9 67.8653 30.1031C68.3243 30.3195 68.1125 30.6058 67.597 30.9287C65.2947 30.7822 63.2467 30.2728 61.4082 29.4705C61.387 29.9399 61.2246 30.2562 60.9139 30.4227C61.9473 31.1185 63.2938 31.5946 64.725 32.0074C64.951 32.2171 64.8168 32.4302 64.3225 32.6399C62.5264 32.2171 60.9468 31.6611 59.7486 30.8655C59.7392 31.6711 59.3225 31.9308 58.6281 31.8176C59.3837 32.62 60.2736 33.2958 61.2293 33.9117C61.3988 34.3179 61.1257 34.511 60.6455 34.6109C59.106 33.5189 57.67 32.2371 56.6107 30.2995C56.6154 29.8633 56.7472 29.6037 57.1498 29.7302C57.4628 30.0897 57.7783 30.4493 58.0914 30.8089C58.6187 30.9087 58.8588 30.8022 58.8094 30.4926C58.5104 30.1963 58.2114 29.9 57.9125 29.6037C57.7995 29.2341 57.9949 29.0444 58.4963 29.0344C58.8847 29.2874 59.2731 29.5404 59.6615 29.7968C60.3159 29.7601 60.5537 29.5704 60.3795 29.2275C59.9322 28.9944 59.4826 28.7614 59.0353 28.5283C58.993 28.0955 59.2213 27.9057 59.5744 27.8292C60.1865 28.0189 60.8009 28.2087 61.4129 28.4018C61.5918 28.1488 61.7707 27.8958 61.952 27.6394C61.4576 27.4263 60.9657 27.2166 60.4713 27.0069C60.4242 26.5907 60.5984 26.4242 60.8738 26.371C60.8738 26.371 62.5782 26.877 62.8018 26.6872C63.2185 26.5274 63.2938 25.8849 63.1596 25.8616C62.637 25.7983 62.1121 25.7351 61.5895 25.6718C61.5118 25.3189 61.6059 24.976 61.9473 24.6564C62.7688 24.6764 63.5928 24.6997 64.4143 24.7197C65.2053 24.2003 64.9534 23.904 64.5485 23.641C63.8611 23.5577 63.2444 23.4978 62.5546 23.4113C62.6229 23.0051 62.6535 22.6089 62.9783 22.4991C63.6798 22.4358 64.3837 22.3725 65.0852 22.3093C65.476 22.1894 65.5066 21.9131 65.1747 21.4836C64.3672 21.4204 63.5598 21.3571 62.7524 21.2939C62.8253 22.1462 62.6276 22.5756 62.3027 22.8153C61.161 23.4213 62.2768 21.8232 61.8084 21.1041C61.5494 22.569 61.0575 23.3913 60.3277 23.5777C60.3065 24.6731 59.8875 25.4787 58.8918 25.8616C59.0142 27.8691 56.1469 29.6836 55.3489 27.3198C55.1959 25.9182 55.2265 24.8062 55.469 23.7109C54.5697 21.5735 54.6945 19.4594 57.3216 19.7724C61.0598 20.0254 64.7957 20.2784 68.5339 20.5348C72.3474 20.5448 76.0903 20.2818 79.8356 20.0154ZM60.4689 21.2373C59.6568 21.2173 58.847 21.2006 58.0349 21.2706C56.7967 21.3704 56.5777 21.9697 57.3663 22.3526C57.8442 22.5224 58.6069 22.5556 59.6568 22.4524C60.017 22.5224 61.0669 21.3172 60.4689 21.2373ZM59.1766 23.7775C58.6257 23.7608 58.0773 23.7475 57.5264 23.8041C56.6884 23.884 56.5377 24.3534 57.0721 24.6564C57.3969 24.7896 57.9125 24.8162 58.6234 24.7363C58.8706 24.7896 59.5815 23.8407 59.1766 23.7775ZM58.2185 25.8982C57.7618 25.8716 57.2581 25.9182 56.8014 26.0114C56.1046 26.1413 55.9798 26.7172 56.4247 27.2166C56.6931 27.4363 56.8602 27.413 57.4511 27.2799C57.6535 27.3664 58.5551 25.9981 58.2185 25.8982ZM61.0057 23.7242C61.3046 23.3447 61.6577 23.2049 61.7919 23.4146C61.9261 23.6243 61.7919 24.1071 61.4953 24.4866C61.1963 24.8661 60.8432 25.006 60.7091 24.7962C60.5725 24.5865 60.7067 24.1037 61.0057 23.7242ZM59.9252 25.6518C60.17 25.3389 60.4595 25.2257 60.5702 25.3988C60.6808 25.5719 60.5702 25.9681 60.3254 26.2778C60.0805 26.5907 59.791 26.7039 59.6827 26.5308C59.5721 26.361 59.6803 25.9648 59.9252 25.6518ZM58.953 27.1001C59.1248 26.907 59.3202 26.8504 59.3884 26.9736C59.4567 27.0934 59.372 27.3498 59.1978 27.5395C59.0259 27.7326 58.8305 27.7892 58.7623 27.666C58.694 27.5462 58.7811 27.2898 58.953 27.1001ZM58.122 28.0522C58.315 27.9057 58.5151 27.8991 58.5669 28.0356C58.6187 28.1721 58.5033 28.4018 58.3103 28.5483C58.1173 28.6948 57.9172 28.7014 57.8654 28.5649C57.8136 28.4284 57.9289 28.1987 58.122 28.0522Z" fill="#FAFAFA"/>
<path fill-rule="evenodd" clip-rule="evenodd" d="M25.7892 28.6182C25.615 28.5017 25.4384 28.505 25.3961 28.6282C25.3537 28.7514 25.4643 28.9478 25.6385 29.0643C25.8127 29.1809 25.9893 29.1775 26.0317 29.0543C26.074 28.9312 25.9634 28.7347 25.7892 28.6182ZM21.0835 34.0882C19.6452 34.0815 18.2563 33.4223 17.8726 32.2338C16.5496 32.56 15.0525 31.5613 14.4687 30.3161C12.8303 30.6424 11.0577 29.6003 10.2644 27.9623C8.81899 28.0789 7.51486 27.1766 6.80865 25.4554C5.22439 24.8495 4.11799 23.2814 4.11799 22.023C2.17356 21.0875 1.26726 17.9313 3.72487 19.1065C5.16083 19.7924 18.6353 20.4216 23.4564 19.1931C28.2774 17.9646 30.4431 19.4395 28.4116 25.0626C27.8301 26.887 27.5524 29.7368 27.5783 32.4036C28.2091 37.0412 24.2002 37.6871 21.0835 34.0882ZM20.7422 34.794C19.1132 34.784 17.9479 34.4244 17.5124 32.893C16.0129 33.3158 14.6758 32.5967 14.0143 30.9886C12.1617 31.4114 10.9659 30.8821 10.069 28.768C8.43292 28.9178 7.05818 28.3252 6.25781 26.1046C4.46404 25.3223 3.56714 24.1171 3.56714 22.4891C1.72158 21.4736 0.74937 20.1852 1.05539 18.494C-0.663049 18.2243 -0.128683 14.8484 1.54974 15.4477C3.22817 16.047 18.7106 15.8239 24.2402 14.4955C29.7699 13.1705 32.5853 16.2767 30.2054 23.0584C29.0401 25.6585 28.4704 28.6815 28.501 32.1272C29.2167 38.1166 24.2709 39.4416 20.7422 34.794ZM2.04173 17.7349C0.897674 17.4286 1.30492 17.0491 2.17591 17.099C6.97108 17.8647 11.7239 18.0578 16.4413 17.8814C20.229 17.7416 23.9931 16.1535 27.736 16.6529C29.4285 17.2189 28.4751 17.9713 27.6465 17.7316C25.7327 17.2588 21.8839 18.3142 16.1424 18.6737C9.54403 19.0832 2.41367 18.0212 2.04173 17.7349ZM3.16461 20.0154C2.93627 20.1419 3.08457 20.5215 3.61187 21.1574C8.08924 21.4836 12.5431 21.7133 16.8863 21.4736C16.6367 21.7899 16.6226 22.1095 16.8415 22.4258C12.762 22.569 8.6801 22.4358 4.59821 22.1095C4.25688 22.5224 4.58173 22.9785 5.00075 23.4412C9.05204 23.7708 13.1033 23.8041 17.1523 23.5677C16.7992 24.3934 16.8557 24.9061 17.5101 24.9627C14.2992 25.3023 10.8976 25.3788 7.42069 25.3422C7.12879 25.6785 7.35714 26.1213 7.82324 26.6107C11.5167 26.5707 15.1372 26.3943 18.6306 25.9781C18.4329 26.4242 18.5223 26.7405 18.8989 26.9303C16.4225 27.433 13.7483 27.726 11.0059 27.9457C10.7022 28.2786 11.0436 28.5416 11.6791 28.7714C14.6994 28.6182 17.5077 28.252 20.0642 27.6294C19.9583 28.1455 19.9394 28.6249 20.5585 28.8346C18.9602 29.5071 17.1287 29.9 15.1325 30.1031C14.6735 30.3195 14.8853 30.6058 15.4009 30.9287C17.7031 30.7822 19.7511 30.2728 21.5896 29.4705C21.6108 29.9399 21.7732 30.2562 22.084 30.4227C21.0505 31.1185 19.704 31.5946 18.2728 32.0074C18.0468 32.2171 18.181 32.4302 18.6753 32.6399C20.4714 32.2171 22.051 31.6611 23.2492 30.8655C23.2586 31.6711 23.6753 31.9308 24.3697 31.8176C23.6141 32.62 22.7242 33.2958 21.7685 33.9117C21.5967 34.3179 21.8721 34.511 22.35 34.6109C23.8895 33.5189 25.3255 32.2371 26.3871 30.2995C26.3824 29.8633 26.2506 29.6037 25.848 29.7302C25.535 30.0897 25.2195 30.4493 24.9064 30.8089C24.3791 30.9087 24.139 30.8022 24.1885 30.4926C24.4874 30.1963 24.7864 29.9 25.0853 29.6037C25.1983 29.2341 25.003 29.0444 24.5015 29.0344C24.1131 29.2874 23.7247 29.5404 23.3363 29.7968C22.6819 29.7601 22.4441 29.5704 22.6183 29.2275C23.0656 28.9944 23.5152 28.7614 23.9625 28.5283C24.0072 28.0955 23.7765 27.9057 23.4234 27.8292C22.8113 28.0189 22.1969 28.2087 21.5849 28.4018C21.406 28.1488 21.2271 27.8958 21.0458 27.6394C21.5402 27.4263 22.0322 27.2166 22.5265 27.0069C22.5736 26.5907 22.3994 26.4242 22.124 26.371C22.124 26.371 20.4197 26.877 20.196 26.6872C19.7794 26.5274 19.704 25.8849 19.8382 25.8616C20.3608 25.7983 20.8858 25.7351 21.4083 25.6718C21.4837 25.3189 21.3919 24.976 21.0505 24.6564C20.229 24.6764 19.4051 24.6997 18.5835 24.7197C17.7926 24.2003 18.0468 23.904 18.4493 23.641C19.1367 23.5577 19.7535 23.4978 20.4432 23.4113C20.3749 23.0051 20.3443 22.6089 20.0195 22.4991C19.318 22.4358 18.6141 22.3725 17.9126 22.3093C17.5218 22.1894 17.4912 21.9131 17.8232 21.4836C18.6306 21.4204 19.438 21.3571 20.2455 21.2939C20.1701 22.1462 20.3702 22.5756 20.6927 22.8153C21.8344 23.4213 20.7186 21.8232 21.1871 21.1041C21.446 22.569 21.9404 23.3913 22.6678 23.5777C22.6889 24.6731 23.108 25.4787 24.1037 25.8616C23.9813 27.8691 26.8485 29.6836 27.6465 27.3198C27.7995 25.9182 27.7689 24.8062 27.5265 23.7109C28.4281 21.5735 28.3009 19.4594 25.6738 19.7724C21.9356 20.0254 18.1998 20.2784 14.4616 20.5348C10.6528 20.5448 6.90752 20.2818 3.16461 20.0154ZM22.5312 21.2373C23.341 21.2173 24.1531 21.2006 24.9653 21.2706C26.2011 21.3704 26.4224 21.9697 25.6338 22.3526C25.156 22.5224 24.3933 22.5556 23.3434 22.4524C22.9832 22.5224 21.9333 21.3172 22.5312 21.2373ZM23.8236 23.7775C24.3744 23.7608 24.9229 23.7475 25.4738 23.8041C26.3118 23.884 26.4625 24.3534 25.9281 24.6564C25.6032 24.7896 25.0877 24.8162 24.3768 24.7363C24.1296 24.7896 23.4163 23.8407 23.8236 23.7775ZM24.7817 25.8982C25.2384 25.8716 25.7421 25.9182 26.1988 26.0114C26.8956 26.1413 27.0204 26.7172 26.5754 27.2166C26.3071 27.4363 26.1399 27.413 25.5491 27.2799C25.3443 27.3664 24.445 25.9981 24.7817 25.8982ZM21.9945 23.7242C21.6955 23.3447 21.3424 23.2049 21.2083 23.4146C21.0741 23.6243 21.2083 24.1071 21.5049 24.4866C21.8038 24.8661 22.1569 25.006 22.2911 24.7962C22.4253 24.5865 22.2935 24.1037 21.9945 23.7242ZM23.075 25.6518C22.8302 25.3389 22.5406 25.2257 22.4324 25.3988C22.3217 25.5719 22.4324 25.9681 22.6772 26.2778C22.922 26.5907 23.2115 26.7039 23.3222 26.5308C23.4281 26.361 23.3198 25.9648 23.075 25.6518ZM24.0472 27.1001C23.8754 26.907 23.68 26.8504 23.6117 26.9736C23.5434 27.0934 23.6282 27.3498 23.8024 27.5395C23.9742 27.7326 24.1696 27.7892 24.2379 27.666C24.3038 27.5462 24.2191 27.2898 24.0472 27.1001ZM24.8758 28.0522C24.6828 27.9057 24.4827 27.8991 24.4309 28.0356C24.3791 28.1721 24.4945 28.4018 24.6875 28.5483C24.8805 28.6948 25.0806 28.7014 25.1324 28.5649C25.1866 28.4284 25.0689 28.1987 24.8758 28.0522Z" fill="#FAFAFA"/>
</svg>
