<svg width="408" height="288" viewBox="0 0 408 288" fill="none" xmlns="http://www.w3.org/2000/svg">
<path fill-rule="evenodd" clip-rule="evenodd" d="M19.7534 190.953V190.049C20.4658 189.865 20.9359 189.647 21.1443 189.395C21.3623 189.129 21.4641 188.694 21.4641 188.065V157.711C21.4641 157.034 21.3478 156.574 21.1297 156.313C20.8971 156.061 20.4415 155.853 19.7485 155.694V154.818H44.222C48.3123 154.818 51.4866 155.631 53.774 157.251C56.0517 158.882 57.1906 161.141 57.1906 164.034C57.1906 165.689 56.7786 167.145 55.9596 168.384C55.1406 169.622 53.9 170.677 52.2329 171.529C54.3022 172.559 55.8288 173.788 56.8174 175.225C57.806 176.662 58.3004 178.379 58.3004 180.368C58.3004 183.706 57.0016 186.314 54.4137 188.171C51.8161 190.029 48.1475 190.958 43.4127 190.958H19.7534V190.953ZM41.261 174.993H29.4071V184.838H40.9944C44.6291 184.838 47.1346 184.47 48.4916 183.725C49.8485 182.99 50.527 181.727 50.527 179.927C50.527 178.205 49.8001 176.957 48.3413 176.163C46.8778 175.384 44.5225 174.993 41.261 174.993ZM42.1672 160.672H29.4071V168.568H43.1462C45.3318 168.568 46.9408 168.248 47.9876 167.615C49.0344 166.971 49.5529 165.999 49.5529 164.663C49.5529 163.193 49.0101 162.152 47.9197 161.567C46.8245 160.967 44.9151 160.672 42.1672 160.672Z" fill="#FAFAFA"/>
<path fill-rule="evenodd" clip-rule="evenodd" d="M69.0542 190.953V190.049C69.7424 189.913 70.2028 189.715 70.4305 189.439C70.6486 189.173 70.7649 188.713 70.7649 188.06V157.706C70.7649 157.077 70.6631 156.627 70.4451 156.361C70.2367 156.085 69.7666 155.868 69.0542 155.684V154.818H91.8121C96.5227 154.818 100.182 155.737 102.789 157.571C105.396 159.409 106.695 161.978 106.695 165.273C106.695 167.982 105.89 170.217 104.282 171.974C102.682 173.739 100.201 175.06 96.8571 175.955L104.514 186.618C104.96 187.272 105.469 187.833 106.041 188.317C106.617 188.8 107.533 189.371 108.789 190.049V190.953H95.4759V190.049C95.9702 189.981 96.3482 189.841 96.6051 189.647C96.8668 189.439 96.9976 189.197 96.9976 188.902C96.9976 188.844 96.9055 188.617 96.7311 188.234C96.5469 187.857 96.3531 187.509 96.1544 187.223L88.5652 176.159H78.7031V188.06C78.7031 188.737 78.8048 189.197 79.0229 189.439C79.2313 189.691 79.7014 189.884 80.4138 190.049V190.953H69.0542ZM89.6216 161.001H78.7127V170.914H89.8979C93.1982 170.914 95.5534 170.512 96.954 169.719C98.3546 168.926 99.0573 167.619 99.0573 165.805C99.0573 164.063 98.3691 162.82 96.9976 162.089C95.631 161.369 93.1691 161.001 89.6216 161.001Z" fill="#FAFAFA"/>
<path fill-rule="evenodd" clip-rule="evenodd" d="M150.384 184.47C151.106 184.47 151.581 184.369 151.818 184.151C152.051 183.933 152.245 183.498 152.405 182.821H153.277V192.666H152.405C152.245 192.003 152.036 191.544 151.784 191.311C151.523 191.069 151.062 190.958 150.384 190.958H117.483V190.053C118.195 189.87 118.665 189.652 118.873 189.4C119.092 189.134 119.193 188.699 119.193 188.07V157.716C119.193 157.039 119.077 156.579 118.859 156.318C118.631 156.066 118.171 155.858 117.478 155.698V154.818H149.977C150.679 154.818 151.14 154.702 151.377 154.484C151.61 154.252 151.804 153.797 151.964 153.105H152.87V162.926H151.964C151.828 162.273 151.644 161.838 151.387 161.606C151.145 161.388 150.752 161.272 150.248 161.272H149.972H127.131V169.201H141.685C142.407 169.201 142.882 169.1 143.1 168.901C143.332 168.693 143.526 168.248 143.71 167.547H144.583V176.705H143.71C143.57 176.052 143.376 175.617 143.124 175.384C142.858 175.167 142.387 175.051 141.69 175.051H127.136V184.461H150.384V184.47Z" fill="#FAFAFA"/>
<path fill-rule="evenodd" clip-rule="evenodd" d="M174.188 188.065C174.188 188.767 174.29 189.226 174.508 189.463C174.726 189.691 175.163 189.899 175.841 190.082V190.953H164.515V190.049C165.218 189.889 165.664 189.681 165.872 189.429C166.066 189.163 166.173 188.718 166.173 188.065V157.711C166.173 157.009 166.071 156.54 165.848 156.274C165.63 156.023 165.194 155.829 164.515 155.689V154.818H175.841V155.689C175.187 155.829 174.751 156.023 174.518 156.274C174.3 156.54 174.184 157.009 174.184 157.711V188.065H174.188Z" fill="#FAFAFA"/>
<path fill-rule="evenodd" clip-rule="evenodd" d="M187.569 161.209C186.866 161.209 186.406 161.311 186.168 161.528C185.936 161.746 185.742 162.181 185.582 162.859H184.676V153.105H185.548C185.708 153.773 185.916 154.228 186.193 154.46C186.459 154.702 186.92 154.818 187.574 154.818H217.911C218.614 154.818 219.074 154.702 219.312 154.484C219.544 154.252 219.738 153.797 219.898 153.105H220.804V162.926H219.898C219.758 162.249 219.564 161.789 219.288 161.562C219.021 161.32 218.566 161.209 217.906 161.209H206.663V188.065C206.663 188.767 206.765 189.226 206.983 189.463C207.201 189.691 207.637 189.889 208.316 190.049V190.953H197.097V190.049C197.765 189.865 198.211 189.647 198.42 189.395C198.638 189.129 198.764 188.684 198.812 188.031V161.214H187.569V161.209Z" fill="#FAFAFA"/>
<path fill-rule="evenodd" clip-rule="evenodd" d="M262.395 184.47C263.122 184.47 263.592 184.369 263.81 184.17C264.038 183.962 264.222 183.527 264.387 182.85L265.293 182.816V192.661H264.387C264.251 191.998 264.052 191.539 263.776 191.306C263.514 191.065 263.054 190.953 262.395 190.953H230.037V190.049C230.749 189.865 231.219 189.647 231.427 189.395C231.646 189.129 231.747 188.694 231.747 188.065V157.711C231.747 157.034 231.631 156.574 231.413 156.313C231.18 156.061 230.725 155.853 230.032 155.694V154.818H241.401V155.689C240.737 155.848 240.277 156.056 240.044 156.308C239.802 156.569 239.685 157.029 239.685 157.706V184.465H262.395V184.47Z" fill="#FAFAFA"/>
<path fill-rule="evenodd" clip-rule="evenodd" d="M283.534 188.065C283.534 188.767 283.636 189.226 283.854 189.463C284.072 189.691 284.508 189.899 285.187 190.082V190.953H273.866V190.049C274.569 189.889 275.015 189.681 275.223 189.429C275.417 189.163 275.523 188.718 275.523 188.065V157.711C275.523 157.009 275.422 156.54 275.204 156.274C274.985 156.023 274.549 155.829 273.871 155.689V154.818H285.192V155.689C284.537 155.829 284.101 156.023 283.869 156.274C283.651 156.54 283.534 157.009 283.534 157.711V188.065Z" fill="#FAFAFA"/>
<path fill-rule="evenodd" clip-rule="evenodd" d="M305.609 166.444V188.065C305.609 188.767 305.706 189.226 305.919 189.463C306.127 189.691 306.549 189.889 307.203 190.049V190.953H297.259V190.049C297.947 189.865 298.398 189.647 298.596 189.395C298.805 189.129 298.907 188.694 298.907 188.065V157.711C298.907 157.034 298.795 156.574 298.587 156.313C298.364 156.061 297.923 155.853 297.259 155.694V154.818H309.738V155.689C309.408 155.756 309.142 155.882 308.943 156.056C308.735 156.24 308.623 156.458 308.599 156.734C308.599 156.976 308.667 157.227 308.807 157.469C308.953 157.721 309.195 158.021 309.539 158.374L328.469 178.355V157.711C328.469 157.009 328.367 156.55 328.158 156.313C327.96 156.081 327.504 155.877 326.821 155.694V154.818H336.765V155.689C336.092 155.873 335.66 156.09 335.462 156.366C335.273 156.632 335.176 157.077 335.176 157.711V188.065C335.176 188.742 335.278 189.202 335.486 189.463C335.694 189.715 336.116 189.908 336.77 190.049V190.953H325.299V190.049C325.653 189.981 325.919 189.855 326.118 189.681C326.307 189.497 326.404 189.289 326.404 189.037C326.404 188.796 326.336 188.544 326.196 188.278C326.05 188.026 325.818 187.726 325.498 187.392L305.609 166.444Z" fill="#FAFAFA"/>
<path fill-rule="evenodd" clip-rule="evenodd" d="M385.989 182.791C385.989 183.469 386.105 183.943 386.342 184.209C386.57 184.485 387.031 184.678 387.699 184.819V185.694C384.472 187.581 381.045 189.042 377.445 190.078C373.849 191.113 370.432 191.631 367.224 191.631C361.19 191.631 356.175 189.836 352.201 186.256C348.236 182.666 346.245 178.176 346.245 172.777C346.245 167.31 348.28 162.81 352.336 159.254C356.407 155.698 361.646 153.923 368.072 153.923C371.324 153.923 374.532 154.407 377.682 155.374C380.832 156.342 382.465 156.826 382.543 156.826C382.795 156.826 383.28 156.768 383.992 156.632C384.152 156.608 384.292 156.589 384.404 156.564L385.174 157.039L380.658 165.67L379.911 165.195C379.936 165.147 379.955 165.104 379.97 165.06C379.979 165.012 379.979 164.944 379.979 164.862C379.979 163.846 378.637 162.801 375.957 161.717C373.277 160.633 370.452 160.091 367.495 160.091C363.405 160.091 360.071 161.277 357.473 163.647C354.885 166.018 353.587 169.056 353.587 172.777C353.587 176.217 355.011 179.129 357.876 181.538C360.735 183.943 364.287 185.152 368.532 185.152C370.175 185.152 371.901 184.959 373.708 184.577C375.511 184.195 377.445 183.609 379.514 182.791V177.842H370.524C369.846 177.842 369.385 177.944 369.143 178.161C368.891 178.379 368.683 178.819 368.499 179.497H367.626V171.132H368.532C368.673 171.824 368.867 172.283 369.143 172.511C369.41 172.728 369.87 172.844 370.524 172.844H387.699V173.686C387.055 173.822 386.609 174.03 386.357 174.32C386.115 174.596 385.989 175.08 385.989 175.747V182.791Z" fill="#FAFAFA"/>
<path fill-rule="evenodd" clip-rule="evenodd" d="M179.267 215.308V214.955C179.534 214.882 179.713 214.8 179.801 214.703C179.888 214.602 179.931 214.432 179.931 214.186V205.313L179.015 205.55C178.996 205.559 178.967 205.569 178.928 205.579C178.555 205.671 178.327 205.913 178.245 206.295L177.891 206.309V202.565L178.245 202.579C178.288 202.797 178.347 202.952 178.424 203.044C178.497 203.136 178.599 203.184 178.734 203.184C178.763 203.184 178.793 203.184 178.831 203.179C178.865 203.174 178.933 203.155 179.02 203.131L179.936 202.894V202.41C179.936 202.149 179.893 201.97 179.796 201.868C179.708 201.771 179.529 201.689 179.267 201.626V201.287H183.595V201.626C183.343 201.679 183.174 201.757 183.081 201.853C182.994 201.955 182.951 202.139 182.951 202.41V214.191C182.951 214.461 182.989 214.64 183.077 214.732C183.159 214.819 183.329 214.897 183.595 214.96V215.313H179.267V215.308Z" fill="#FAFAFA"/>
<path fill-rule="evenodd" clip-rule="evenodd" d="M189.498 211.055C189.498 211.752 189.813 212.279 190.452 212.647C191.087 213.015 191.998 213.194 193.181 213.194C194.363 213.194 195.274 213.01 195.904 212.647C196.534 212.279 196.849 211.752 196.849 211.055C196.849 210.412 196.525 209.899 195.866 209.517C195.216 209.14 194.32 208.951 193.176 208.951C192.032 208.951 191.136 209.14 190.477 209.517C189.827 209.894 189.498 210.407 189.498 211.055ZM193.132 206.619C194.145 206.619 194.925 206.474 195.473 206.183C196.021 205.888 196.292 205.477 196.292 204.935C196.292 204.422 196.006 204.002 195.429 203.677C194.853 203.358 194.087 203.198 193.127 203.198C192.173 203.198 191.402 203.358 190.816 203.677C190.234 204.002 189.939 204.422 189.939 204.935C189.939 205.472 190.215 205.888 190.767 206.183C191.33 206.469 192.115 206.619 193.132 206.619ZM189.604 207.804C188.727 207.519 188.073 207.127 187.637 206.624C187.196 206.125 186.978 205.521 186.978 204.805C186.978 203.648 187.525 202.729 188.625 202.047C189.725 201.37 191.228 201.031 193.132 201.031C195.066 201.031 196.573 201.379 197.649 202.076C198.725 202.777 199.263 203.731 199.263 204.959C199.263 205.661 199.069 206.242 198.676 206.691C198.284 207.146 197.664 207.514 196.806 207.799C197.809 208.036 198.58 208.443 199.108 209.019C199.636 209.599 199.907 210.325 199.907 211.191C199.907 212.565 199.311 213.644 198.119 214.428C196.922 215.211 195.265 215.603 193.142 215.603C191.024 215.603 189.362 215.211 188.17 214.423C186.968 213.634 186.372 212.56 186.372 211.191C186.372 210.33 186.629 209.628 187.147 209.086C187.661 208.544 188.48 208.119 189.604 207.804Z" fill="#FAFAFA"/>
<path fill-rule="evenodd" clip-rule="evenodd" d="M205.713 211.055C205.713 211.752 206.028 212.279 206.668 212.647C207.303 213.015 208.214 213.194 209.396 213.194C210.584 213.194 211.49 213.01 212.12 212.647C212.75 212.279 213.065 211.752 213.065 211.055C213.065 210.412 212.74 209.899 212.086 209.517C211.437 209.14 210.54 208.951 209.396 208.951C208.253 208.951 207.356 209.14 206.697 209.517C206.043 209.894 205.713 210.407 205.713 211.055ZM209.343 206.619C210.356 206.619 211.136 206.474 211.684 206.183C212.231 205.888 212.503 205.477 212.503 204.935C212.503 204.422 212.217 204.002 211.64 203.677C211.063 203.358 210.298 203.198 209.338 203.198C208.384 203.198 207.613 203.358 207.027 203.677C206.44 204.002 206.149 204.422 206.149 204.935C206.149 205.472 206.426 205.888 206.978 206.183C207.54 206.469 208.325 206.619 209.343 206.619ZM205.82 207.804C204.943 207.519 204.288 207.127 203.852 206.624C203.411 206.125 203.193 205.521 203.193 204.805C203.193 203.648 203.741 202.729 204.841 202.047C205.936 201.37 207.443 201.031 209.348 201.031C211.286 201.031 212.789 201.379 213.865 202.076C214.94 202.777 215.478 203.731 215.478 204.959C215.478 205.661 215.28 206.242 214.892 206.691C214.499 207.146 213.879 207.514 213.021 207.799C214.025 208.036 214.795 208.443 215.323 209.019C215.856 209.599 216.123 210.325 216.123 211.191C216.123 212.565 215.527 213.644 214.335 214.428C213.138 215.211 211.48 215.603 209.358 215.603C207.24 215.603 205.578 215.211 204.385 214.423C203.183 213.634 202.587 212.56 202.587 211.191C202.587 210.33 202.844 209.628 203.363 209.086C203.872 208.544 204.696 208.119 205.82 207.804Z" fill="#FAFAFA"/>
<path fill-rule="evenodd" clip-rule="evenodd" d="M225.699 210.61V204.113L219.714 210.61H225.699ZM224.958 215.308V214.955C225.234 214.882 225.418 214.8 225.496 214.703C225.583 214.607 225.622 214.432 225.622 214.186V212.933H217.95C217.679 212.933 217.494 212.971 217.393 213.058C217.296 213.141 217.218 213.315 217.165 213.576H216.826V210.499L224.013 202.642C224.134 202.507 224.216 202.395 224.265 202.294C224.313 202.192 224.337 202.095 224.337 201.999C224.337 201.897 224.303 201.815 224.226 201.762C224.153 201.713 224.022 201.665 223.828 201.621V201.283H229.135V201.621C228.878 201.674 228.704 201.752 228.612 201.849C228.529 201.95 228.481 202.134 228.481 202.405V210.586H229.188C229.44 210.586 229.62 210.543 229.722 210.456C229.828 210.368 229.906 210.204 229.959 209.962H230.313V213.576H229.959C229.906 213.315 229.828 213.145 229.731 213.058C229.629 212.971 229.445 212.933 229.188 212.933H228.481V214.186C228.481 214.457 228.52 214.636 228.607 214.728C228.689 214.815 228.859 214.892 229.121 214.955L229.135 215.308H224.958Z" fill="#FAFAFA"/>
<path fill-rule="evenodd" clip-rule="evenodd" d="M205.98 82.9194V85.7449C221.783 79.0683 230.623 87.5156 220.363 98.319C230.124 110.129 217.242 125.136 205.98 117.831V129.66C207.758 129.897 209.217 131.053 209.76 132.587C213.705 131.76 217.257 129.602 220.586 126.709C220.204 125.77 219.249 125.025 218.866 124.086C222.588 121.769 225.869 117.86 227.555 113.506C229.387 119.002 228.941 124.88 225.171 130.376C224.405 130.076 223.644 129.771 222.879 129.471C217.33 135.035 211.931 137.972 206.426 138.528C204.516 139.38 203.712 141.039 203.455 143.1C203.024 140.962 201.987 139.399 200.237 138.523C194.746 137.952 189.357 135.02 183.823 129.471C183.057 129.771 182.296 130.076 181.531 130.376C177.76 124.88 177.314 119.002 179.141 113.506C180.828 117.86 184.109 121.769 187.831 124.086C187.448 125.025 186.493 125.77 186.11 126.709C189.265 129.452 192.624 131.532 196.326 132.447C196.971 130.826 198.652 129.655 200.63 129.616V112.654C184.249 133.197 167.447 109.369 200.567 88.488C200.586 88.4735 200.605 88.4639 200.63 88.4542V82.9243C199.142 82.0196 198.148 80.3843 198.148 78.5265C198.148 75.6914 200.465 73.3788 203.305 73.3788C206.145 73.3788 208.461 75.6914 208.461 78.5265C208.461 80.3795 207.463 82.0147 205.98 82.9194ZM205.98 89.1992V111.464C211.509 122.006 221.401 106.674 216.918 100.898C207.065 107.119 201.754 92.1456 217.238 96.2434C223.993 86.398 214.185 85.3868 205.98 89.1992ZM200.63 108.619V92.6972C200.494 92.8229 200.358 92.9487 200.232 93.0745C179.655 106.64 184.661 125.673 200.63 108.619ZM214.257 98.9382L214.306 98.8657C209.697 96.5628 209.624 101.198 214.257 98.9382Z" fill="#FAFAFA"/>
<path fill-rule="evenodd" clip-rule="evenodd" d="M235.692 114.967C236.051 114.797 236.414 114.802 236.501 114.981C236.589 115.16 236.361 115.446 236.002 115.615C235.644 115.784 235.275 115.78 235.193 115.601C235.106 115.422 235.329 115.136 235.692 114.967ZM245.38 122.916C248.346 122.906 251.2 121.948 251.99 120.221C254.713 120.695 257.796 119.244 258.998 117.434C262.366 117.908 266.02 116.394 267.653 114.014C270.629 114.183 273.313 112.872 274.772 110.371C278.034 109.49 280.311 107.211 280.311 105.383C284.314 104.023 286.18 99.4366 281.121 101.144C278.164 102.141 250.425 103.055 240.499 101.27C230.574 99.485 226.116 101.628 230.298 109.8C231.495 112.451 232.067 116.592 232.014 120.468C230.71 127.207 238.963 128.146 245.38 122.916ZM246.082 123.941C249.436 123.927 251.835 123.404 252.731 121.179C255.818 121.793 258.571 120.748 259.933 118.411C263.747 119.026 266.209 118.257 268.055 115.184C271.423 115.402 274.254 114.541 275.901 111.314C279.594 110.177 281.44 108.426 281.44 106.06C285.24 104.584 287.241 102.712 286.611 100.254C290.149 99.8623 289.049 94.9565 285.594 95.8274C282.143 96.6982 250.265 96.3741 238.881 94.4437C227.497 92.5182 221.701 97.0321 226.6 106.887C228.999 110.666 230.172 115.059 230.109 120.066C228.636 128.77 238.813 130.695 246.082 123.941ZM284.576 99.1511C286.931 98.706 286.093 98.1545 284.3 98.2271C274.428 99.3398 264.643 99.6204 254.932 99.364C247.134 99.1608 239.385 96.853 231.679 97.5788C228.195 98.4012 230.158 99.4946 231.863 99.1463C235.803 98.4593 243.727 99.9929 255.547 100.515C269.131 101.111 283.81 99.5672 284.576 99.1511ZM282.269 102.465C282.739 102.649 282.434 103.201 281.344 104.125C272.126 104.599 262.957 104.933 254.016 104.584C254.529 105.044 254.558 105.508 254.108 105.968C262.511 106.176 270.91 105.982 279.313 105.508C280.016 106.108 279.347 106.771 278.484 107.444C270.144 107.923 261.804 107.971 253.463 107.627C254.19 108.827 254.074 109.572 252.727 109.655C259.337 110.148 266.34 110.259 273.498 110.206C274.098 110.695 273.624 111.338 272.669 112.049C265.065 111.991 257.612 111.735 250.42 111.13C250.832 111.778 250.643 112.238 249.867 112.514C254.966 113.244 260.471 113.67 266.117 113.989C266.742 114.473 266.039 114.855 264.731 115.189C258.513 114.967 252.727 114.435 247.468 113.53C247.691 114.28 247.725 114.976 246.455 115.281C249.741 116.259 253.516 116.829 257.626 117.125C258.571 117.439 258.135 117.855 257.074 118.324C252.334 118.111 248.118 117.371 244.333 116.205C244.289 116.887 243.955 117.347 243.315 117.589C245.443 118.6 248.215 119.292 251.161 119.892C251.626 120.197 251.35 120.506 250.332 120.811C246.635 120.197 243.383 119.389 240.916 118.232C240.897 119.403 240.039 119.781 238.609 119.616C240.165 120.782 241.997 121.764 243.965 122.659C244.313 123.25 243.751 123.53 242.763 123.675C239.593 122.088 236.637 120.226 234.456 117.41C234.466 116.776 234.737 116.399 235.566 116.583C236.211 117.105 236.86 117.628 237.504 118.15C238.59 118.295 239.084 118.141 238.983 117.691C238.367 117.26 237.752 116.829 237.136 116.399C236.904 115.862 237.306 115.586 238.338 115.572C239.138 115.939 239.937 116.307 240.737 116.679C242.084 116.626 242.574 116.35 242.215 115.852C241.294 115.513 240.369 115.175 239.448 114.836C239.361 114.207 239.831 113.931 240.558 113.82C241.818 114.096 243.083 114.372 244.343 114.652C244.711 114.285 245.079 113.917 245.452 113.544C244.435 113.235 243.422 112.93 242.404 112.625C242.307 112.02 242.666 111.778 243.233 111.701C243.233 111.701 246.741 112.436 247.202 112.161C248.06 111.928 248.215 110.995 247.938 110.961C246.863 110.869 245.782 110.777 244.706 110.685C244.546 110.172 244.74 109.674 245.443 109.209C247.134 109.238 248.83 109.272 250.521 109.301C252.15 108.547 251.631 108.116 250.798 107.734C249.383 107.613 248.113 107.526 246.693 107.4C246.834 106.81 246.897 106.234 247.565 106.074C249.009 105.982 250.458 105.891 251.903 105.799C252.707 105.624 252.77 105.223 252.087 104.599C250.425 104.507 248.762 104.415 247.1 104.323C247.25 105.562 246.843 106.186 246.174 106.534C243.824 107.415 246.121 105.092 245.157 104.047C244.624 106.176 243.611 107.371 242.108 107.642C242.065 109.234 241.202 110.404 239.152 110.961C239.404 113.878 233.502 116.515 231.859 113.08C231.544 111.043 231.607 109.427 232.106 107.835C230.255 104.729 230.511 101.657 235.92 102.112C243.616 102.48 251.307 102.847 259.002 103.22C266.853 103.234 274.559 102.852 282.269 102.465ZM242.399 104.241C240.727 104.212 239.06 104.188 237.388 104.289C234.839 104.434 234.388 105.305 236.012 105.862C236.996 106.108 238.566 106.157 240.727 106.007C241.469 106.108 243.63 104.357 242.399 104.241ZM239.739 107.932C238.605 107.908 237.475 107.889 236.341 107.971C234.616 108.087 234.306 108.769 235.406 109.209C236.075 109.403 237.136 109.442 238.6 109.326C239.109 109.403 240.572 108.024 239.739 107.932ZM237.766 111.014C236.826 110.975 235.789 111.043 234.849 111.179C233.414 111.367 233.157 112.204 234.073 112.93C234.626 113.249 234.97 113.215 236.186 113.022C236.603 113.148 238.459 111.159 237.766 111.014ZM243.504 107.855C244.12 107.303 244.847 107.1 245.123 107.405C245.399 107.71 245.123 108.411 244.512 108.963C243.897 109.514 243.17 109.717 242.894 109.413C242.612 109.108 242.889 108.406 243.504 107.855ZM241.28 110.656C241.784 110.201 242.38 110.037 242.608 110.288C242.835 110.54 242.608 111.116 242.104 111.566C241.6 112.02 241.003 112.185 240.781 111.933C240.553 111.687 240.776 111.111 241.28 110.656ZM239.278 112.761C239.632 112.48 240.034 112.398 240.175 112.577C240.315 112.751 240.141 113.123 239.782 113.399C239.428 113.68 239.026 113.762 238.886 113.583C238.745 113.409 238.924 113.036 239.278 112.761ZM237.567 114.144C237.965 113.931 238.377 113.922 238.483 114.12C238.59 114.318 238.353 114.652 237.955 114.865C237.558 115.078 237.146 115.088 237.039 114.889C236.933 114.691 237.17 114.357 237.567 114.144Z" fill="#FAFAFA"/>
<path fill-rule="evenodd" clip-rule="evenodd" d="M171.005 114.967C170.646 114.797 170.282 114.802 170.195 114.981C170.108 115.16 170.336 115.446 170.694 115.615C171.053 115.784 171.416 115.78 171.504 115.601C171.591 115.422 171.363 115.136 171.005 114.967ZM161.317 122.916C158.356 122.906 155.497 121.948 154.707 120.221C151.983 120.695 148.901 119.244 147.699 117.434C144.326 117.908 140.677 116.394 139.044 114.014C136.068 114.183 133.383 112.872 131.929 110.371C128.668 109.49 126.39 107.211 126.39 105.383C122.387 104.023 120.521 99.4366 125.581 101.144C128.537 102.141 156.277 103.055 166.202 101.27C176.127 99.485 180.586 101.628 176.403 109.8C175.206 112.451 174.634 116.592 174.688 120.468C175.986 127.207 167.733 128.146 161.317 122.916ZM160.614 123.941C157.261 123.927 154.862 123.404 153.965 121.179C150.878 121.793 148.125 120.748 146.764 118.411C142.95 119.026 140.488 118.257 138.641 115.184C135.273 115.402 132.443 114.541 130.795 111.314C127.102 110.177 125.256 108.426 125.256 106.06C121.457 104.584 119.455 102.712 120.085 100.254C116.547 99.8623 117.647 94.9565 121.103 95.8274C124.558 96.6982 156.432 96.3741 167.816 94.4437C179.2 92.5182 184.996 97.0321 180.096 106.887C177.697 110.666 176.524 115.059 176.587 120.066C178.061 128.77 167.879 130.695 160.614 123.941ZM122.116 99.1511C119.76 98.706 120.599 98.1545 122.392 98.2271C132.264 99.3398 142.048 99.6204 151.76 99.364C159.558 99.1608 167.307 96.853 175.012 97.5788C178.497 98.4012 176.534 99.4946 174.828 99.1463C170.888 98.4593 162.965 99.9929 151.145 100.515C137.561 101.111 122.881 99.5672 122.116 99.1511ZM124.427 102.465C123.957 102.649 124.263 103.201 125.348 104.125C134.566 104.599 143.735 104.933 152.676 104.584C152.162 105.044 152.133 105.508 152.584 105.968C144.185 106.176 135.782 105.982 127.379 105.508C126.676 106.108 127.345 106.771 128.207 107.444C136.548 107.923 144.888 107.971 153.224 107.627C152.497 108.827 152.613 109.572 153.96 109.655C147.35 110.148 140.347 110.259 133.189 110.206C132.588 110.695 133.058 111.338 134.018 112.049C141.622 111.991 149.075 111.735 156.267 111.13C155.86 111.778 156.044 112.238 156.82 112.514C151.721 113.244 146.216 113.67 140.57 113.989C139.945 114.473 140.648 114.855 141.956 115.189C148.174 114.967 153.955 114.435 159.218 113.53C159 114.28 158.962 114.976 160.236 115.281C156.946 116.259 153.175 116.829 149.066 117.125C148.121 117.439 148.557 117.855 149.618 118.324C154.358 118.111 158.574 117.371 162.359 116.205C162.402 116.887 162.737 117.347 163.377 117.589C161.249 118.6 158.477 119.292 155.53 119.892C155.065 120.197 155.341 120.506 156.359 120.811C160.057 120.197 163.309 119.389 165.775 118.232C165.795 119.403 166.653 119.781 168.082 119.616C166.527 120.782 164.695 121.764 162.727 122.659C162.373 123.25 162.94 123.53 163.924 123.675C167.094 122.088 170.05 120.226 172.235 117.41C172.226 116.776 171.954 116.399 171.126 116.583C170.481 117.105 169.832 117.628 169.187 118.15C168.102 118.295 167.607 118.141 167.709 117.691C168.325 117.26 168.94 116.829 169.555 116.399C169.788 115.862 169.386 115.586 168.354 115.572C167.554 115.939 166.754 116.307 165.955 116.679C164.607 116.626 164.118 116.35 164.477 115.852C165.397 115.513 166.323 115.175 167.244 114.836C167.336 114.207 166.861 113.931 166.134 113.82C164.874 114.096 163.609 114.372 162.349 114.652C161.981 114.285 161.613 113.917 161.239 113.544C162.257 113.235 163.27 112.93 164.288 112.625C164.385 112.02 164.026 111.778 163.459 111.701C163.459 111.701 159.95 112.436 159.49 112.161C158.632 111.928 158.477 110.995 158.753 110.961C159.829 110.869 160.91 110.777 161.986 110.685C162.141 110.172 161.952 109.674 161.249 109.209C159.558 109.238 157.862 109.272 156.17 109.301C154.542 108.547 155.065 108.116 155.894 107.734C157.309 107.613 158.579 107.526 159.999 107.4C159.858 106.81 159.795 106.234 159.126 106.074C157.682 105.982 156.233 105.891 154.789 105.799C153.985 105.624 153.922 105.223 154.605 104.599C156.267 104.507 157.929 104.415 159.592 104.323C159.437 105.562 159.848 106.186 160.512 106.534C162.863 107.415 160.566 105.092 161.53 104.047C162.063 106.176 163.081 107.371 164.578 107.642C164.622 109.234 165.485 110.404 167.535 110.961C167.283 113.878 173.185 116.515 174.828 113.08C175.143 111.043 175.08 109.427 174.581 107.835C176.437 104.729 176.175 101.657 170.767 102.112C163.071 102.48 155.38 102.847 147.684 103.22C139.843 103.234 132.133 102.852 124.427 102.465ZM164.297 104.241C165.964 104.212 167.636 104.188 169.308 104.289C171.853 104.434 172.308 105.305 170.685 105.862C169.701 106.108 168.131 106.157 165.969 106.007C165.228 106.108 163.066 104.357 164.297 104.241ZM166.958 107.932C168.092 107.908 169.221 107.889 170.355 107.971C172.08 108.087 172.391 108.769 171.29 109.209C170.622 109.403 169.56 109.442 168.097 109.326C167.588 109.403 166.12 108.024 166.958 107.932ZM168.93 111.014C169.87 110.975 170.908 111.043 171.848 111.179C173.282 111.367 173.539 112.204 172.623 112.93C172.071 113.249 171.727 113.215 170.51 113.022C170.089 113.148 168.237 111.159 168.93 111.014ZM163.192 107.855C162.577 107.303 161.85 107.1 161.574 107.405C161.298 107.71 161.574 108.411 162.184 108.963C162.8 109.514 163.527 109.717 163.803 109.413C164.079 109.108 163.808 108.406 163.192 107.855ZM165.417 110.656C164.913 110.201 164.317 110.037 164.094 110.288C163.866 110.54 164.094 111.116 164.598 111.566C165.102 112.02 165.698 112.185 165.926 111.933C166.144 111.687 165.921 111.111 165.417 110.656ZM167.418 112.761C167.065 112.48 166.662 112.398 166.522 112.577C166.381 112.751 166.556 113.123 166.914 113.399C167.268 113.68 167.67 113.762 167.811 113.583C167.947 113.409 167.772 113.036 167.418 112.761ZM169.124 114.144C168.727 113.931 168.315 113.922 168.208 114.12C168.102 114.318 168.339 114.652 168.736 114.865C169.134 115.078 169.546 115.088 169.652 114.889C169.764 114.691 169.522 114.357 169.124 114.144Z" fill="#FAFAFA"/>
</svg>
