<svg width="120" height="74" viewBox="0 0 120 74" fill="none" xmlns="http://www.w3.org/2000/svg">
<g clip-path="url(#clip0_84_53)">
<path fill-rule="evenodd" clip-rule="evenodd" d="M5 47.5951V34.8665H9.38337C10.0576 34.7824 10.6478 34.9511 11.2379 35.2879C11.7434 35.6254 12.2496 36.0468 12.5864 36.5523C12.9238 37.1431 13.0919 37.7327 13.0919 38.4075C13.0919 38.9971 12.9232 39.6707 12.5864 40.1768C12.3336 40.6823 11.9962 41.1044 11.4907 41.4412C11.2379 41.6099 10.9852 41.778 10.6478 41.8633C10.3103 41.9473 9.88887 42.0314 9.55208 42.0314H6.51715V47.5957L5 47.5951ZM6.51715 40.6823H9.46741C9.88888 40.6823 10.2263 40.5142 10.5631 40.3455C10.9064 40.0992 11.1936 39.7831 11.406 39.4179C11.5785 39.0788 11.6653 38.7026 11.6588 38.3222C11.5741 37.9014 11.4901 37.5633 11.2373 37.2265C11.0752 36.8966 10.8083 36.6298 10.4784 36.4677C10.2257 36.2989 9.88825 36.2149 9.55145 36.2149C9.46679 36.1309 9.38274 36.1309 9.2987 36.1309H6.6012L6.51715 40.6823ZM11.2379 47.5951L16.2955 34.6984H17.6446L22.9549 47.5951H21.1838L19.9194 44.3074H14.1035L12.8391 47.5951H11.2379ZM14.6937 42.9584H19.3298L16.9691 37.1425L14.6937 42.9584ZM24.05 47.5951V36.299L20.2568 36.2149V34.6978H29.6137L29.529 36.1309L25.6518 36.2149V47.5951H24.05ZM30.6253 47.5951V34.6978H37.8743L37.0314 36.1309H32.2265V40.2615H36.778V41.694H32.2265V46.2467H37.1154L37.9583 47.5951H30.6253ZM39.897 58.8053V57.7937H44.1116V61.1654L43.3527 61.9243C43.0153 62.1771 42.6785 62.4298 42.257 62.5991C41.9196 62.7672 41.4982 62.8519 41.0767 62.9359C40.7393 63.02 40.3178 63.02 39.8963 63.02C39.3062 62.9359 38.8007 62.7672 38.2951 62.5991C37.9577 62.4304 37.705 62.2611 37.4522 62.0083C37.1318 61.7617 36.8724 61.4448 36.694 61.082C36.2725 60.4912 36.0197 59.8176 35.9351 59.0587L35.851 58.2998C35.767 57.7694 35.767 57.2291 35.851 56.6986C36.0197 55.8557 36.2725 55.0974 36.694 54.4226C37.1154 53.9171 37.6215 53.4109 38.2111 53.0741C38.3798 52.9901 38.5485 52.9054 38.8013 52.8214C39.2227 52.6527 39.6442 52.6527 40.1497 52.5686C40.6552 52.5686 41.2454 52.6527 41.7515 52.8214C42.2577 52.9901 42.7632 53.3269 43.1846 53.6643C43.3534 53.833 43.4374 53.9171 43.5221 54.0864L43.9435 54.5085L43.1853 55.0981L42.9325 54.9293C42.5899 54.5039 42.1583 54.1586 41.6681 53.9177L40.9092 53.6649H40.1503C39.6448 53.6649 39.1387 53.8337 38.6332 54.087C38.4645 54.2557 38.2117 54.4238 38.043 54.5925C37.8743 54.8453 37.7056 55.098 37.6216 55.3514C37.4528 55.6882 37.2841 56.025 37.1995 56.3631L37.1154 56.9526V58.217L37.1995 58.8066L37.3682 59.3961C37.4522 59.7342 37.5369 59.9857 37.705 60.3237C37.9577 60.6605 38.2105 60.9973 38.5479 61.3354C38.8847 61.5035 39.1375 61.6722 39.5595 61.7562C39.981 61.9249 40.4025 61.9249 40.8239 61.8415C41.2454 61.8415 41.6669 61.6728 42.0043 61.4194C42.257 61.3354 42.4258 61.1667 42.5945 61.0826L42.8472 60.8299V58.8066H39.897V58.8053ZM38.97 47.5951V34.6978H40.5718V40.5148L45.7134 34.6978H47.7361L43.7748 39.1652L48.1582 47.5951H46.2189L42.6785 40.5148L40.5718 42.8749V47.5951H38.97ZM45.5447 62.8519V52.9048H51.1925L50.6023 54.0017H46.8932V57.1201H50.3496V58.2158H46.8932V61.7556H50.6023L51.1925 62.8519H45.5447ZM60.6328 27.3648H60.4654L60.3801 27.4488L60.296 27.6175V27.8703L60.3801 28.039V28.2077L60.4654 28.2917L60.5488 28.3758V28.5445L60.6328 28.7132V28.7972L60.7169 28.9659V29.2193H60.8021V29.4715L60.7169 29.6402V29.9776L60.6328 30.0616V30.1463H60.5488V30.2303L60.4654 30.3991L60.296 30.5678L60.212 30.6518L60.0426 30.8205L59.9586 30.9046L59.7899 30.9892L59.6218 31.1573L59.4531 30.9892L59.3684 30.9046L59.1997 30.8205L59.1157 30.6518L59.0316 30.5678L58.9476 30.3991L58.8629 30.3144L58.7789 30.1463V30.0616L58.6942 29.8935V29.6402L58.6102 29.4715V29.3034L58.6942 29.2193V28.8819L58.7789 28.7972V28.6285L58.8629 28.5445L59.0316 28.123L59.1157 28.039V27.5328L59.0316 27.4488L58.9476 27.3648H58.7789L58.6942 27.4488H58.5255L58.4414 27.5328L57.9359 27.8703L57.8513 27.9543L57.6826 28.039H57.5985L57.5145 28.123H57.3458L57.2617 28.2077H56.7556L56.6709 28.123H56.5028L56.3341 28.039L56.2501 27.9543L56.1654 27.8703L55.9967 27.7862L55.9127 27.7015L55.8286 27.5328L55.7439 27.4488V27.2801L55.6599 27.196V26.6899L55.7439 26.6059V26.4372L55.8286 26.3531V26.1844L55.9127 26.1004L55.9967 26.0157V25.931L56.0814 25.847L56.1654 25.6783L56.9243 24.92L57.4298 24.4145L57.5145 24.3298L57.5985 24.1611L57.6826 24.0771L57.7672 23.9924V23.9084L57.9359 23.4869L58.02 23.4029V23.2341L58.104 23.1495H58.1887L58.2727 23.2341L58.3568 23.3182V23.4029L58.4414 23.5709V23.6556L58.3568 23.8237V23.9924L58.2727 24.1611L58.1887 24.3298L57.8513 25.004L57.5985 25.5096V25.6783L57.5145 25.847V26.0157L57.5985 26.1004V26.2684L57.6826 26.3531L57.8513 26.4372L57.9359 26.5212H58.6102L58.7789 26.4372H58.8629L58.9476 26.3531L59.0316 26.2684L59.1157 26.1844L59.1997 26.1004L59.2844 25.931V25.847L59.3684 25.6783V21.0428H54.5642V21.1268H54.3955L54.3108 21.2109L54.2268 21.2949H54.1427L53.974 21.3796V21.4636L53.89 21.5483L53.8053 21.717V21.801L53.7213 21.8857V22.3912L53.8053 22.5599L53.89 22.644L53.974 22.728V22.8127L54.1427 22.8967H54.817L54.901 22.8127H54.9851L55.0697 22.728L55.4912 22.5599L55.7439 22.3912L55.9127 22.3065H55.9967L56.1654 22.2225H56.2501L56.3341 22.1378H56.8396L56.9243 22.2225L57.0083 22.3065V22.4753L56.9243 22.5599H56.6709L56.5875 22.644H56.4182L56.3341 22.728L56.2501 22.8127L55.6599 23.2341L54.9851 23.7396L54.4795 24.2458L54.3108 24.3298L54.2268 24.4979H54.0581V24.5826L53.89 24.6673H53.8053L53.6366 24.7513H52.8784L52.7096 24.6673H52.625L52.5409 24.5826L52.3722 24.4979L52.2882 24.4145L52.2041 24.2458L52.0354 24.1611V23.9924L51.9508 23.9084V23.0654L52.0354 22.9808L52.2041 22.728L52.2882 22.644L52.625 22.1378L52.7096 22.0538L52.7937 21.8857V21.801L52.8784 21.6323L52.7937 21.5483V21.4636L52.7096 21.3796H52.625L52.5409 21.2949H52.3722L52.2041 21.3796H52.1195L51.698 21.5483L51.614 21.6323H51.5293L51.4452 21.717H51.2765L51.1925 21.801H50.6864L50.6023 21.717H50.3496L50.1808 21.6323L50.0962 21.5483H50.0121L49.9281 21.4636H49.8434L49.7594 21.3796L49.5907 21.2109L49.422 21.1268V21.0428L49.2532 20.9581L49.0852 20.7053L49.3379 20.4526L49.6753 20.1152L49.7594 20.0311H49.8434L49.9281 19.8624L50.0962 19.7778H50.2649L50.3496 19.6937H50.5183L50.6864 19.6097H51.1078L51.2765 19.6937H51.3612L51.4452 19.7778L51.8667 19.9465L52.0354 20.0311L52.1195 20.1152H52.7096L52.7937 19.9465H52.8784V19.6937L52.7937 19.6097L52.7096 19.441L52.625 19.2722L52.5409 19.1882L52.3722 18.8508L52.2882 18.7661V18.6827L52.2041 18.598L52.1195 18.4293V18.2606L52.0354 18.0919V17.8391L52.1195 17.671V17.5023L52.2041 17.4177L52.2882 17.2496L52.3722 17.1649L52.4569 17.0802L52.5409 16.9968L52.625 16.9122L52.7096 16.8275H52.7937L52.9624 16.7434H53.1311L53.2992 16.6594H53.4679L53.5526 16.7434H53.8053L53.974 16.8275H54.1427L54.2268 16.9122H54.3108L54.3955 16.9968L54.4795 17.0802L54.5642 17.1649L54.7323 17.2496L54.817 17.4177L55.5759 18.0919L55.6599 18.2606L55.8286 18.4293L56.0814 18.598L56.2501 18.7661H56.3341L56.4182 18.8508H56.5028L56.5875 18.9348H56.9243L57.0083 19.0195L57.093 19.1035V19.2722L56.9243 19.3569L56.8396 19.441H56.5875L56.5028 19.3569H56.3341L55.9967 19.1882H55.9127L55.7439 19.1035L55.3225 18.8508L54.817 18.598H54.7323L54.5642 18.5134H54.2268L54.1427 18.598H54.0581L53.89 18.6827L53.8053 18.7661V18.8508L53.7213 19.0195V19.1035L53.6366 19.2722V19.525L53.7213 19.6937L53.8053 19.7778V19.9465L53.974 20.0311L54.0581 20.1152L54.1427 20.1998H54.2268L54.3955 20.2839H59.3684V15.5631L59.2844 15.4791V15.3103L59.1997 15.2263V15.1416L59.1157 15.0576L59.0316 14.9735L58.9476 14.8889L58.7789 14.8048L58.6942 14.7202H58.5255L58.3568 14.6361H58.2727L58.104 14.7202H58.02L57.8513 14.8048H57.7672L57.6826 14.8889L57.5985 15.0576V15.1416L57.5145 15.3103V15.3944L57.5985 15.4791V15.7318L57.6826 15.8165V15.9005L57.9359 16.5747L58.1887 17.0802L58.2727 17.2496L58.3568 17.4177V17.7551L58.2727 17.9238L58.1887 18.0078L58.104 18.0919L58.02 18.0078L57.9359 17.9238V17.5864L57.8513 17.5023L57.7672 17.3336L57.5985 17.0802L57.5145 16.9122L57.4298 16.8275L57.177 16.5747L56.5028 15.8165L56.0814 15.3103L55.9967 15.1416L55.9127 14.9735L55.8286 14.8889L55.7439 14.7202V14.4674L55.6599 14.3834V14.0459L55.7439 13.8772V13.7932L55.8286 13.6245L55.9127 13.5404V13.4564L56.0814 13.3717L56.1654 13.203L56.2501 13.119L56.3341 13.0343H56.5028L56.5875 12.9503H56.8396L57.0083 12.8662L57.093 12.9503H57.3458L57.5145 13.0343H57.5985L57.6826 13.119L57.9359 13.2877L58.1887 13.5404L58.4414 13.6245L58.5255 13.7091L58.6942 13.7932H58.9476L59.0316 13.7091L59.1157 13.6245L59.1997 13.5404V13.3717L59.1157 13.2877V13.119L59.0316 13.0343L58.9476 12.8662L58.8629 12.6135L58.6942 12.276V12.1073L58.6102 12.0233V11.6018L58.6942 11.4331V11.3484L58.7789 11.2644V11.0963L58.8629 10.9276L58.9476 10.8429L59.0316 10.7589L59.1157 10.5902L59.1997 10.5061L59.2844 10.4215L59.3684 10.3374L59.7058 10L59.8746 10.1687L60.0426 10.3374L60.212 10.4215L60.296 10.5902L60.3801 10.6742L60.4654 10.8429L60.5488 10.9276L60.6328 11.0963V11.1804L60.7169 11.2644V11.3484L60.8021 11.5172V12.1073L60.7169 12.276L60.6328 12.6135L60.5488 12.7815V12.8662L60.3801 13.119V13.203L60.296 13.2877V13.4564L60.3801 13.5404V13.7091L60.4654 13.7932H60.5488L60.7169 13.8772L60.8021 13.7932H60.9696L61.0549 13.7091L61.2224 13.6245L61.3077 13.5404L61.7285 13.203H61.8972L61.9813 13.119H62.0665L62.1506 13.0343H62.9089L63.0782 13.119L63.1622 13.203L63.3297 13.2877L63.415 13.3717L63.499 13.4564L63.5825 13.5404L63.6677 13.6245V13.7932L63.7518 13.8772V14.0459L63.8358 14.2147V14.2993L63.7518 14.4674V14.7202L63.6677 14.8048V14.8889L63.5825 15.0576V15.1416L63.499 15.2263L63.415 15.3103L63.3297 15.4791L63.1622 15.6478L62.9929 15.8165L62.6561 16.1533L62.4033 16.4907L62.1506 16.7434L61.9813 16.9122L61.8138 17.0802L61.6445 17.4177L61.5604 17.5023L61.4757 17.5864V17.7551L61.3917 17.8391V17.9238L61.3077 18.0078H61.2224L61.1389 17.9238L61.0549 17.7551V17.4177L61.1389 17.3336V17.2496L61.2224 17.1649L61.4757 16.4907L61.7285 15.9852L61.8138 15.9005V15.7318L61.8972 15.6478V15.1416L61.8138 15.0576V14.9735L61.7285 14.8889V14.8048L61.6445 14.7202H61.4757L61.3917 14.6361H60.9696L60.8021 14.7202H60.7169L60.6328 14.8048L60.5488 14.8889L60.4654 14.9735L60.296 15.1416L60.212 15.2263V15.3944L60.1273 15.4791V20.3679L64.0886 20.2839H65.0162L65.1002 20.1998H65.1855L65.2689 20.1152L65.353 20.0311L65.4383 19.8624L65.5223 19.7778L65.6057 19.6097L65.691 19.525V18.9348L65.6057 18.8508V18.6827L65.5223 18.598L65.4383 18.5134H64.7634L64.6794 18.598H64.5941L64.4266 18.6827L63.9205 18.9348L63.3297 19.1882H63.2457L63.0782 19.2722H62.9929L62.8254 19.3569H62.7401L62.5721 19.2722H62.4874L62.4033 19.1882V19.0195L62.4874 18.9348L62.6561 18.8508H62.8254L62.9929 18.7661H63.0782L63.499 18.4293L64.0886 17.9238L64.7634 17.3336L65.2689 16.9968L65.353 16.9122L65.4383 16.8275L65.6057 16.7434H65.691L65.8591 16.6594H66.534L66.6174 16.7434H66.7867L66.8708 16.8275L66.9554 16.9122L67.1235 16.9968L67.2088 17.0802L67.2922 17.2496L67.3763 17.4177V17.5023L67.4603 17.5864V18.2606L67.3763 18.3453V18.4293L67.2922 18.598L67.2088 18.6827V18.7661L66.8708 19.1882L66.7867 19.2722V19.3569L66.7027 19.441L66.6174 19.525V19.8624L66.7027 19.9465L66.7867 20.0311L66.8708 20.1152H67.1235L67.2088 20.0311H67.2922L67.629 19.8624H67.7131L67.8824 19.7778H67.9658L68.0511 19.6937H68.3039L68.4719 19.6097H68.81L68.894 19.6937H69.0627L69.2308 19.7778L69.3995 19.8624L69.4836 19.9465L69.6523 20.0311L69.7363 20.1152L69.9057 20.1998L69.9891 20.2839L70.0731 20.4526L70.3265 20.7053L70.0731 21.0428L69.9891 21.1268L69.9057 21.2109L69.8216 21.2949L69.7363 21.3796L69.5689 21.4636L69.4836 21.5483L69.3155 21.6323H69.2308L69.0627 21.717H68.81L68.7247 21.801H68.4719L68.3879 21.717H68.0511L67.9658 21.6323H67.7984L67.7131 21.5483H67.629L67.5456 21.4636L67.2922 21.2949H66.7867L66.7027 21.3796L66.6174 21.4636L66.534 21.5483V21.801L66.6174 21.8857L66.7027 22.0538L66.7867 22.1378L66.9554 22.3912L67.1235 22.644L67.2088 22.8127L67.2922 22.8967V23.2341L67.3763 23.3182V23.6556L67.2922 23.7396V23.9084L67.2088 23.9924V24.0771L67.1235 24.2458L67.0395 24.3298L66.9554 24.4145L66.7867 24.4979L66.7027 24.5826L66.6174 24.6673H66.4499L66.3646 24.7513H65.691L65.6057 24.6673H65.4383L65.353 24.5826L65.2689 24.4979L65.1002 24.4145L65.0162 24.3298L64.8475 24.2458L64.1739 23.5709L63.5825 23.0654L63.415 22.8127L63.1622 22.644L63.0782 22.5599L62.6561 22.3912L62.4874 22.3065L62.4033 22.2225L62.4874 22.0538H62.5721L62.6561 21.9697H62.8254L62.9089 22.0538H63.1622L63.2457 22.1378H63.415L63.6677 22.3065L64.2573 22.644L64.5107 22.8127H64.6794L64.8475 22.8967H65.1855L65.353 22.8127L65.5223 22.728L65.6057 22.644L65.691 22.4753V22.3912L65.7751 22.3065V22.0538L65.691 21.9697V21.801L65.6057 21.717V21.5483L65.5223 21.4636L65.4383 21.3796L65.353 21.2949L65.2689 21.2109H65.1002L65.0162 21.1268H64.8475L64.6794 21.0428H60.1273V25.5096L60.212 25.7629V25.931L60.296 26.0157V26.1004L60.3801 26.1844L60.4654 26.2684L60.5488 26.3531H60.6328L60.7169 26.4372L60.8021 26.5212H61.5604L61.6445 26.4372L61.7285 26.3531L61.8138 26.2684L61.8972 26.1844L61.9813 26.1004V25.6783L61.8972 25.5942V25.3415L61.8138 25.2568L61.6445 24.92L61.3917 24.3298L61.2224 23.9084L61.1389 23.7396V23.3182L61.2224 23.2341L61.3077 23.1495L61.3917 23.0654L61.4757 23.1495L61.5604 23.2341V23.5709L61.6445 23.6556V23.7396L61.8138 23.9924L61.8972 24.1611L62.0665 24.3298L62.1506 24.4979L62.7401 25.1728L63.2457 25.847L63.3297 25.931L63.415 26.0157L63.499 26.1004L63.5825 26.2684V26.3531L63.6677 26.4372V26.5212L63.7518 26.6899V27.4488L63.6677 27.5328V27.6175L63.5825 27.7015L63.499 27.8703L63.3297 27.9543L63.2457 28.039L63.1622 28.123L62.9929 28.2077H62.9089L62.7401 28.2917H62.234L62.1506 28.2077H62.0665L61.8972 28.123H61.8138L61.7285 28.039H61.6445L61.5604 27.9543L61.4757 27.8703L60.9696 27.5328L60.8856 27.4488L60.8021 27.3648H60.6328ZM52.5409 62.8519L52.4569 52.9048H54.3108L58.4414 60.6599V52.9048H59.7058V62.8519H58.1887L53.7213 54.422V62.8519H52.5409ZM52.9624 47.6785L52.8784 34.8658H57.3458C58.02 34.8658 58.6102 35.0346 59.2003 35.2873C59.7058 35.6247 60.2126 36.0462 60.4654 36.6364C60.8021 37.1419 60.9702 37.8161 61.0549 38.4069C61.0549 39.0805 60.8862 39.67 60.5494 40.2615C60.2966 40.6823 59.9592 41.1044 59.4531 41.4412C59.2003 41.6099 58.9476 41.778 58.6102 41.8633C58.2677 42.0264 57.8938 42.1127 57.5145 42.116H54.4795V47.6791L52.9624 47.6785ZM54.4795 40.6823H57.4298C57.7672 40.6823 58.1887 40.5983 58.5255 40.3455C58.8629 40.1768 59.1157 39.84 59.2844 39.5026C59.4531 39.1645 59.6218 38.7437 59.5371 38.3222C59.5371 37.9854 59.4525 37.5633 59.1997 37.2265C59.0378 36.8967 58.7712 36.6298 58.4414 36.4677C58.1887 36.2989 57.8513 36.2149 57.5145 36.2149H54.4795V40.6823ZM61.3917 62.8519V52.9048H67.7131L70.6639 61.082L73.3608 52.9048H74.7945L71.4228 62.6832H69.9891L66.7027 54.0017H62.7401V57.0354H66.1119V58.2158H62.6561V61.7556H66.534L67.1235 62.8519H61.3917ZM62.0665 47.6785V34.6978H63.6677V40.0928H69.4836L69.3995 34.6978H71.0007V47.6785H69.3995L69.4836 41.6099H63.6677V47.6785H62.0665ZM73.1921 47.6785V34.7824H74.7945V47.6785H73.1921ZM75.2154 62.8519V52.9048H80.7797L80.1883 54.0017H76.4798V57.0354H79.9356V58.1305H76.4798V61.6715H80.3576L80.9472 62.7672L75.2154 62.8519ZM76.6491 47.6785L76.5651 34.6978H78.2503V46.0773H83.8981V47.6785H76.6491ZM84.9938 47.6785V34.6978H86.595V47.6785H84.9938ZM88.3655 47.6785V34.6978H92.7489C93.4225 34.6978 94.0133 34.8665 94.6034 35.2033C95.1479 35.5104 95.6104 35.9441 95.9519 36.4677C96.2887 37.0572 96.4574 37.648 96.4574 38.3222C96.4574 38.9118 96.2887 39.5866 96.0353 40.0928C95.6985 40.5983 95.3617 41.0204 94.9396 41.3572C94.6028 41.5252 94.35 41.6099 94.0132 41.778C93.6752 41.8633 93.3384 41.9467 92.9163 41.9467H89.9667V47.6785H88.3655ZM89.9667 40.5983H92.8329C93.255 40.5983 93.5918 40.4296 93.9286 40.2615C94.2666 40.0087 94.6034 39.756 94.7721 39.3339C94.9352 38.9914 95.0215 38.6175 95.0249 38.2382C95.0249 37.8161 94.8562 37.3953 94.6868 37.0578C94.4341 36.8051 94.1813 36.5523 93.928 36.3842C93.5912 36.2155 93.2544 36.1309 92.9163 36.0468H89.9667V40.5983ZM97.7218 47.6785V34.6978H102.189C102.779 34.6978 103.454 34.8665 103.96 35.2033C104.504 35.5104 104.967 35.9441 105.308 36.4677C105.645 37.0572 105.814 37.648 105.814 38.3222C105.814 38.9118 105.73 39.5866 105.392 40.0928C105.139 40.5983 104.718 41.0204 104.296 41.3572C104.043 41.5252 103.706 41.6099 103.453 41.778C103.116 41.8633 102.694 41.9467 102.273 41.9467H99.323V47.6785H97.7218ZM99.3236 40.5983H102.19C102.612 40.5983 103.033 40.4296 103.37 40.2615C103.707 40.0087 103.96 39.756 104.129 39.3339C104.292 38.9914 104.378 38.6175 104.382 38.2382C104.382 37.8161 104.297 37.3953 104.044 37.0578C103.854 36.7711 103.592 36.5389 103.285 36.3842C102.991 36.2348 102.68 36.1215 102.359 36.0468H99.3236V40.5983ZM107.079 47.6785V34.6978H114.242L113.569 36.1309H108.68V40.0928H112.726V41.5252H108.764V46.0773H113.653L114.412 47.6785H107.079Z" fill="#FAFAFA"/>
</g>
<defs>
<clipPath id="clip0_84_53">
<rect width="120" height="73.4694" fill="white"/>
</clipPath>
</defs>
</svg>
