<svg width="47" height="47" viewBox="0 0 47 47" fill="none" xmlns="http://www.w3.org/2000/svg">
<path fill-rule="evenodd" clip-rule="evenodd" d="M25.6297 36.4058H25.3149L25.1546 36.5637L24.9966 36.8809V37.3561L25.1546 37.6733V37.9905L25.3149 38.1485L25.4718 38.3065V38.6236L25.6297 38.9408V39.0988L25.7878 39.416V39.8923H25.9481V40.3664L25.7878 40.6835V41.3179L25.6297 41.4759V41.6351H25.4718V41.7931L25.3149 42.1102L24.9966 42.4274L24.8386 42.5854L24.5202 42.9026L24.3622 43.0606L24.045 43.2198L23.729 43.5358L23.4119 43.2198L23.2527 43.0606L22.9355 42.9026L22.7775 42.5854L22.6195 42.4274L22.4615 42.1102L22.3023 41.9511L22.1443 41.6351V41.4759L21.9852 41.1599V40.6835L21.8271 40.3664V40.0503L21.9852 39.8923V39.258L22.1443 39.0988V38.7816L22.3023 38.6236L22.6195 37.8313L22.7775 37.6733V36.7218L22.6195 36.5637L22.4615 36.4058H22.1443L21.9852 36.5637H21.668L21.51 36.7218L20.5596 37.3561L20.4004 37.5141L20.0833 37.6733H19.9253L19.7673 37.8313H19.4501L19.2921 37.9905H18.3406L18.1814 37.8313H17.8654L17.5482 37.6733L17.3902 37.5141L17.231 37.3561L16.9138 37.1981L16.7559 37.0389L16.5978 36.7218L16.4387 36.5637V36.2466L16.2807 36.0886V35.137L16.4387 34.979V34.6619L16.5978 34.5039V34.1867L16.7559 34.0287L16.9138 33.8695V33.7103L17.073 33.5523L17.231 33.2352L18.6577 31.8096L19.6081 30.8593L19.7673 30.7001L19.9253 30.3829L20.0833 30.2249L20.2424 30.0657V29.9077L20.5596 29.1154L20.7176 28.9574V28.6402L20.8756 28.481H21.0348L21.1928 28.6402L21.3508 28.7982V28.9574L21.51 29.2734V29.4326L21.3508 29.7486V30.0657L21.1928 30.3829L21.0348 30.7001L20.4004 31.9676L19.9253 32.918V33.2352L19.7673 33.5523V33.8695L19.9253 34.0287V34.3447L20.0833 34.5039L20.4004 34.6619L20.5596 34.8199H21.8271L22.1443 34.6619H22.3023L22.4615 34.5039L22.6195 34.3447L22.7775 34.1867L22.9355 34.0287L23.0947 33.7103V33.5523L23.2527 33.2352V24.5204H14.2208V24.6784H13.9036L13.7444 24.8364L13.5864 24.9944H13.4284L13.1112 25.1536V25.3116L12.9532 25.4708L12.7941 25.788V25.946L12.6361 26.1051V27.0555L12.7941 27.3727L12.9532 27.5307L13.1112 27.6887V27.8478L13.4284 28.0058H14.696L14.854 27.8478H15.012L15.1711 27.6887L15.9635 27.3727L16.4387 27.0555L16.7559 26.8963H16.9138L17.231 26.7383H17.3902L17.5482 26.5791H18.4986L18.6577 26.7383L18.8157 26.8963V27.2135L18.6577 27.3727H18.1814L18.0246 27.5307H17.7062L17.5482 27.6887L17.3902 27.8478L16.2807 28.6402L15.012 29.5906L14.0616 30.5421L13.7444 30.7001L13.5864 31.0161H13.2692V31.1753L12.9532 31.3344H12.7941L12.4769 31.4924H11.0514L10.7342 31.3344H10.575L10.417 31.1753L10.0998 31.0161L9.94183 30.8593L9.78383 30.5421L9.46665 30.3829V30.0657L9.30747 29.9077V28.323L9.46665 28.1639L9.78383 27.6887L9.94183 27.5307L10.575 26.5791L10.7342 26.4211L10.8922 26.1051V25.946L11.0514 25.6288L10.8922 25.4708V25.3116L10.7342 25.1536H10.575L10.417 24.9944H10.0998L9.78383 25.1536H9.62465L8.8323 25.4708L8.67429 25.6288H8.51512L8.35712 25.788H8.03994L7.88194 25.946H6.93041L6.7724 25.788H6.29722L5.98005 25.6288L5.82088 25.4708H5.66287L5.50487 25.3116H5.3457L5.18769 25.1536L4.87051 24.8364L4.55334 24.6784V24.5204L4.23616 24.3612L3.92017 23.8861L4.39534 23.4109L5.02969 22.7765L5.18769 22.6185H5.3457L5.50487 22.3014L5.82088 22.1422H6.13805L6.29722 21.9842H6.6144L6.93041 21.8262H7.72277L8.03994 21.9842H8.19911L8.35712 22.1422L9.14948 22.4594L9.46665 22.6185L9.62465 22.7765H10.7342L10.8922 22.4594H11.0514V21.9842L10.8922 21.8262L10.7342 21.509L10.575 21.1918L10.417 21.0338L10.0998 20.3995L9.94183 20.2403V20.0835L9.78383 19.9243L9.62465 19.6071V19.2899L9.46665 18.9728V18.4976L9.62465 18.1816V17.8644L9.78383 17.7052L9.94183 17.3892L10.0998 17.2301L10.259 17.0709L10.417 16.914L10.575 16.7549L10.7342 16.5957H10.8922L11.2094 16.4377H11.5265L11.8425 16.2797H12.1597L12.3189 16.4377H12.7941L13.1112 16.5957H13.4284L13.5864 16.7549H13.7444L13.9036 16.914L14.0616 17.0709L14.2208 17.2301L14.5368 17.3892L14.696 17.7052L16.1227 18.9728L16.2807 19.2899L16.5978 19.6071L17.073 19.9243L17.3902 20.2403H17.5482L17.7062 20.3995H17.8654L18.0246 20.5575H18.6577L18.8157 20.7166L18.9749 20.8746V21.1918L18.6577 21.351L18.4986 21.509H18.0246L17.8654 21.351H17.5482L16.9138 21.0338H16.7559L16.4387 20.8746L15.6463 20.3995L14.696 19.9243H14.5368L14.2208 19.7651H13.5864L13.4284 19.9243H13.2692L12.9532 20.0835L12.7941 20.2403V20.3995L12.6361 20.7166V20.8746L12.4769 21.1918V21.667L12.6361 21.9842L12.7941 22.1422V22.4594L13.1112 22.6185L13.2692 22.7765L13.4284 22.9357H13.5864L13.9036 23.0937H23.2527V14.2186L23.0947 14.0606V13.7435L22.9355 13.5854V13.4263L22.7775 13.2683L22.6195 13.1103L22.4615 12.9511L22.1443 12.7931L21.9852 12.6339H21.668L21.3508 12.4759H21.1928L20.8756 12.6339H20.7176L20.4004 12.7931H20.2424L20.0833 12.9511L19.9253 13.2683V13.4263L19.7673 13.7435V13.9015L19.9253 14.0606V14.5358L20.0833 14.695V14.853L20.5596 16.1205L21.0348 17.0709L21.1928 17.3892L21.3508 17.7052V18.3396L21.1928 18.6568L21.0348 18.8148L20.8756 18.9728L20.7176 18.8148L20.5596 18.6568V18.0224L20.4004 17.8644L20.2424 17.5472L19.9253 17.0709L19.7673 16.7549L19.6081 16.5957L19.1329 16.1205L17.8654 14.695L17.073 13.7435L16.9138 13.4263L16.7559 13.1103L16.5978 12.9511L16.4387 12.6339V12.1587L16.2807 12.0007V11.3664L16.4387 11.0492V10.8912L16.5978 10.574L16.7559 10.416V10.258L17.073 10.0989L17.231 9.78168L17.3902 9.62367L17.5482 9.4645H17.8654L18.0246 9.3065H18.4986L18.8157 9.14849L18.9749 9.3065H19.4501L19.7673 9.4645H19.9253L20.0833 9.62367L20.5596 9.94085L21.0348 10.416L21.51 10.574L21.668 10.7332L21.9852 10.8912H22.4615L22.6195 10.7332L22.7775 10.574L22.9355 10.416V10.0989L22.7775 9.94085V9.62367L22.6195 9.4645L22.4615 9.14849L22.3023 8.67332L21.9852 8.03896V7.72179L21.8271 7.56378V6.77143L21.9852 6.45425V6.29508L22.1443 6.13708V5.82107L22.3023 5.5039L22.4615 5.34472L22.6195 5.18672L22.7775 4.86954L22.9355 4.71154L23.0947 4.55237L23.2527 4.39437L23.887 3.76001L24.2042 4.07719L24.5202 4.39437L24.8386 4.55237L24.9966 4.86954L25.1546 5.02754L25.3149 5.34472L25.4718 5.5039L25.6297 5.82107V5.97908L25.7878 6.13708V6.29508L25.9481 6.61225V7.72179L25.7878 8.03896L25.6297 8.67332L25.4718 8.98932V9.14849L25.1546 9.62367V9.78168L24.9966 9.94085V10.258L25.1546 10.416V10.7332L25.3149 10.8912H25.4718L25.7878 11.0492L25.9481 10.8912H26.2629L26.4233 10.7332L26.7381 10.574L26.8985 10.416L27.6896 9.78168H28.0068L28.1648 9.62367H28.3252L28.4832 9.4645H29.9087L30.2271 9.62367L30.3851 9.78168L30.6999 9.94085L30.8602 10.0989L31.0182 10.258L31.1751 10.416L31.3354 10.574V10.8912L31.4934 11.0492V11.3664L31.6514 11.6836V11.8427L31.4934 12.1587V12.6339L31.3354 12.7931V12.9511L31.1751 13.2683V13.4263L31.0182 13.5854L30.8602 13.7435L30.6999 14.0606L30.3851 14.3778L30.0667 14.695L29.4335 15.3282L28.9583 15.9625L28.4832 16.4377L28.1648 16.7549L27.85 17.0709L27.5316 17.7052L27.3736 17.8644L27.2145 18.0224V18.3396L27.0565 18.4976V18.6568L26.8985 18.8148H26.7381L26.5813 18.6568L26.4233 18.3396V17.7052L26.5813 17.5472V17.3892L26.7381 17.2301L27.2145 15.9625L27.6896 15.0122L27.85 14.853V14.5358L28.0068 14.3778V13.4263L27.85 13.2683V13.1103L27.6896 12.9511V12.7931L27.5316 12.6339H27.2145L27.0565 12.4759H26.2629L25.9481 12.6339H25.7878L25.6297 12.7931L25.4718 12.9511L25.3149 13.1103L24.9966 13.4263L24.8386 13.5854V13.9015L24.6794 14.0606V23.2517L32.1266 23.0937H33.8705L34.0285 22.9357H34.1888L34.3457 22.7765L34.5037 22.6185L34.664 22.3014L34.822 22.1422L34.9788 21.8262L35.1392 21.667V20.5575L34.9788 20.3995V20.0835L34.822 19.9243L34.664 19.7651H33.3953L33.2373 19.9243H33.077L32.7621 20.0835L31.8106 20.5575L30.6999 21.0338H30.5419L30.2271 21.1918H30.0667L29.7519 21.351H29.5915L29.2755 21.1918H29.1164L28.9583 21.0338V20.7166L29.1164 20.5575L29.4335 20.3995H29.7519L30.0667 20.2403H30.2271L31.0182 19.6071L32.1266 18.6568L33.3953 17.5472L34.3457 16.914L34.5037 16.7549L34.664 16.5957L34.9788 16.4377H35.1392L35.4552 16.2797H36.7239L36.8807 16.4377H37.1991L37.3571 16.5957L37.5163 16.7549L37.8323 16.914L37.9926 17.0709L38.1494 17.3892L38.3074 17.7052V17.8644L38.4654 18.0224V19.2899L38.3074 19.4491V19.6071L38.1494 19.9243L37.9926 20.0835V20.2403L37.3571 21.0338L37.1991 21.1918V21.351L37.0411 21.509L36.8807 21.667V22.3014L37.0411 22.4594L37.1991 22.6185L37.3571 22.7765H37.8323L37.9926 22.6185H38.1494L38.7826 22.3014H38.9406L39.259 22.1422H39.4158L39.5761 21.9842H40.0513L40.3673 21.8262H41.0028L41.1608 21.9842H41.478L41.794 22.1422L42.1112 22.3014L42.2692 22.4594L42.5864 22.6185L42.7444 22.7765L43.0627 22.9357L43.2196 23.0937L43.3776 23.4109L43.8539 23.8861L43.3776 24.5204L43.2196 24.6784L43.0627 24.8364L42.9047 24.9944L42.7444 25.1536L42.4296 25.3116L42.2692 25.4708L41.9532 25.6288H41.794L41.478 25.788H41.0028L40.8425 25.946H40.3673L40.2093 25.788H39.5761L39.4158 25.6288H39.101L38.9406 25.4708H38.7826L38.6258 25.3116L38.1494 24.9944H37.1991L37.0411 25.1536L36.8807 25.3116L36.7239 25.4708V25.946L36.8807 26.1051L37.0411 26.4211L37.1991 26.5791L37.5163 27.0555L37.8323 27.5307L37.9926 27.8478L38.1494 28.0058V28.6402L38.3074 28.7982V29.4326L38.1494 29.5906V29.9077L37.9926 30.0657V30.2249L37.8323 30.5421L37.6743 30.7001L37.5163 30.8593L37.1991 31.0161L37.0411 31.1753L36.8807 31.3344H36.5659L36.4055 31.4924H35.1392L34.9788 31.3344H34.664L34.5037 31.1753L34.3457 31.0161L34.0285 30.8593L33.8705 30.7001L33.5533 30.5421L32.2869 29.2734L31.1751 28.323L30.8602 27.8478L30.3851 27.5307L30.2271 27.3727L29.4335 27.0555L29.1164 26.8963L28.9583 26.7383L29.1164 26.4211H29.2755L29.4335 26.2631H29.7519L29.9087 26.4211H30.3851L30.5419 26.5791H30.8602L31.3354 26.8963L32.4438 27.5307L32.9201 27.8478H33.2373L33.5533 28.0058H34.1888L34.5037 27.8478L34.822 27.6887L34.9788 27.5307L35.1392 27.2135V27.0555L35.2972 26.8963V26.4211L35.1392 26.2631V25.946L34.9788 25.788V25.4708L34.822 25.3116L34.664 25.1536L34.5037 24.9944L34.3457 24.8364H34.0285L33.8705 24.6784H33.5533L33.2373 24.5204H24.6794V32.918L24.8386 33.3943V33.7103L24.9966 33.8695V34.0287L25.1546 34.1867L25.3149 34.3447L25.4718 34.5039H25.6297L25.7878 34.6619L25.9481 34.8199H27.3736L27.5316 34.6619L27.6896 34.5039L27.85 34.3447L28.0068 34.1867L28.1648 34.0287V33.2352L28.0068 33.0772V32.602L27.85 32.4428L27.5316 31.8096L27.0565 30.7001L26.7381 29.9077L26.5813 29.5906V28.7982L26.7381 28.6402L26.8985 28.481L27.0565 28.323L27.2145 28.481L27.3736 28.6402V29.2734L27.5316 29.4326V29.5906L27.85 30.0657L28.0068 30.3829L28.3252 30.7001L28.4832 31.0161L29.5915 32.2848L30.5419 33.5523L30.6999 33.7103L30.8602 33.8695L31.0182 34.0287L31.1751 34.3447V34.5039L31.3354 34.6619V34.8199L31.4934 35.137V36.5637L31.3354 36.7218V36.8809L31.1751 37.0389L31.0182 37.3561L30.6999 37.5141L30.5419 37.6733L30.3851 37.8313L30.0667 37.9905H29.9087L29.5915 38.1485H28.64L28.4832 37.9905H28.3252L28.0068 37.8313H27.85L27.6896 37.6733H27.5316L27.3736 37.5141L27.2145 37.3561L26.2629 36.7218L26.1049 36.5637L25.9481 36.4058H25.6297Z" fill="#FAFAFA"/>
</svg>
