<svg width="120" height="120" viewBox="0 0 120 120" fill="none" xmlns="http://www.w3.org/2000/svg">
<path fill-rule="evenodd" clip-rule="evenodd" d="M73.0261 40.7155C72.6023 40.7155 72.1959 40.8839 71.8962 41.1835C71.5966 41.4832 71.4282 41.8896 71.4282 42.3134C71.4282 42.8695 71.7006 43.3572 72.1312 43.6436L66.7124 55.2733L67.8444 39.7869C68.2553 39.7521 68.6368 39.5599 68.9094 39.2504C69.1819 38.9409 69.3243 38.5382 69.3069 38.1262C69.2895 37.7142 69.1136 37.3248 68.8159 37.0395C68.5183 36.7541 68.1219 36.5948 67.7095 36.5948C67.2857 36.5948 66.8793 36.7631 66.5797 37.0628C66.28 37.3624 66.1116 37.7689 66.1116 38.1926C66.1116 38.8873 66.5547 39.4668 67.1746 39.6873L63.456 54.8079L61.6163 38.1278C61.9543 38.0391 62.2533 37.8408 62.4664 37.5639C62.6795 37.287 62.7947 36.9473 62.794 36.5979C62.794 36.1741 62.6256 35.7677 62.326 35.468C62.0263 35.1683 61.6199 35 61.1961 35C60.7723 35 60.3659 35.1683 60.0662 35.468C59.7666 35.7677 59.5982 36.1741 59.5982 36.5979C59.5982 37.3953 60.1865 38.0386 60.9507 38.1584L59.468 54.409L55.1589 39.7345C55.4169 39.6006 55.6331 39.3985 55.784 39.1501C55.9349 38.9017 56.0146 38.6166 56.0144 38.326C56.0144 38.0099 55.9207 37.701 55.7451 37.4382C55.5696 37.1755 55.32 36.9707 55.028 36.8497C54.7361 36.7288 54.4148 36.6971 54.1048 36.7588C53.7949 36.8204 53.5101 36.9726 53.2867 37.1961C53.0632 37.4196 52.911 37.7043 52.8494 38.0142C52.7877 38.3242 52.8194 38.6455 52.9403 38.9374C53.0612 39.2294 53.266 39.479 53.5288 39.6545C53.7916 39.8301 54.1005 39.9238 54.4165 39.9238C54.4394 39.9238 54.4643 39.9218 54.4866 39.9207L56.3439 55.2738L50.0857 44.1027C50.3947 43.8604 50.6036 43.5128 50.6726 43.1262C50.7417 42.7397 50.6659 42.3413 50.4599 42.007C50.2539 41.6727 49.932 41.426 49.5557 41.3139C49.1794 41.2019 48.7749 41.2323 48.4196 41.3994C48.0643 41.5665 47.7829 41.8586 47.6292 42.2199C47.4756 42.5813 47.4603 42.9866 47.5864 43.3584C47.7125 43.7303 47.9711 44.0427 48.3128 44.2361C48.6546 44.4294 49.0556 44.4902 49.4393 44.4067L54.6822 60.1245C55.8785 63.7799 66.5116 63.8463 68.1064 60.1245L72.8414 43.891C72.9073 43.8993 72.9571 43.9107 73.025 43.9107C73.4438 43.9033 73.8429 43.7318 74.1364 43.4331C74.43 43.1344 74.5945 42.7324 74.5947 42.3136C74.5948 41.8948 74.4305 41.4927 74.1371 41.1938C73.8438 40.895 73.4448 40.7232 73.0261 40.7155ZM61.263 61.8054C58.5534 61.8054 56.3568 60.9888 56.3568 59.9813C56.3568 58.9738 58.5534 58.5007 61.263 58.5007C63.9727 58.5007 65.8813 58.9738 65.8813 59.9813C65.8813 60.9888 63.9722 61.8054 61.263 61.8054ZM68.9655 71.1664H70.5473C71.5071 71.1664 71.8432 71.3828 71.8432 72.2222V82.5627C71.8432 83.3788 71.5071 83.6906 70.5473 83.6906H68.9655V85.3621H85.1352V78.497H83.6063C83.6063 81.8815 82.2657 83.6615 80.009 83.6615H75.4717V78.1608H76.3624C77.8265 78.1608 78.6627 78.8098 78.6627 80.0087V80.9695H80.4168V73.335H78.6627V74.1754C78.6627 75.3536 77.7793 76.0716 76.3624 76.0716H75.4717V71.1664H79.6972C82.7949 71.1664 83.4382 72.95 83.6063 75.6151H85.1352V69.3496H68.9655V71.1664ZM61.8524 83.6615H58.0206V72.2948C58.0206 71.4549 58.3568 71.167 59.317 71.167H60.7572V69.3901H51.8169V71.167H53.0656C54.0259 71.167 54.3621 71.4549 54.3621 72.2948V82.5627C54.3621 83.3788 54.0259 83.6911 53.0656 83.6911H51.8169V85.4031H66.9697V78.3693H65.2422C65.1934 81.1293 65.2126 83.6615 61.8524 83.6615ZM40.4772 68.9019C34.9552 68.9019 31.5177 73.1602 31.4985 77.1663C31.4736 82.3516 34.9074 85.6163 40.3091 85.6163C46.0464 85.6163 49.3838 82.3998 49.3838 76.9017C49.3838 72.8276 45.7823 68.9019 40.4772 68.9019ZM40.3568 83.7274C37.476 83.7274 35.8195 81.1511 35.8195 77.0459C35.8195 73.0367 37.5481 70.9667 40.501 70.9667C43.3336 70.9667 44.9901 73.0849 44.9901 77.214C44.9906 81.2471 43.3103 83.7274 40.3568 83.7274ZM106.378 71.1664H108.059V69.3678H99.9311V71.1664H100.994C101.394 71.2277 101.659 71.637 101.261 72.0359L99.0014 74.6278L97.2069 72.4344C96.8074 71.9695 96.8744 71.1711 97.6053 71.1711L98.4261 71.1659V69.3673H89.1641V71.1659C91.4904 71.2323 92.0714 71.5037 92.9113 72.5838L96.6746 77.1528L91.5568 82.5357C90.6447 83.5681 90.5576 83.6605 89.1646 83.6605V85.3792H97.2728V83.6605H95.3325C94.7572 83.6605 94.6363 83.2429 94.6363 82.9316C94.6363 82.6193 95.0446 82.2592 95.2127 82.0429L98.0702 78.8093L100.929 82.2115C101.072 82.4035 101.312 82.6198 101.312 82.86C101.312 83.1723 101.048 83.661 100.496 83.661H98.8888V85.3798H108.06V83.661C106.611 83.661 106.481 83.5925 105.181 82.005L100.396 76.3559L103.653 72.8333C104.852 71.5612 105.322 71.1664 106.378 71.1664ZM27.6853 80.7796V81.6019C27.6853 82.5861 27.1105 83.0898 26.6306 83.0898C25.8623 83.0898 25.8146 82.1539 25.7663 81.6019V80.9374C25.7663 78.7439 24.7697 77.8796 23.507 77.215C25.8597 76.6636 27.4208 75.2581 27.4208 73.3132C27.4208 70.7924 25.6922 69.3517 22.6199 69.3517H11V71.167H12.5735C13.5338 71.167 13.8699 71.389 13.8699 72.2289V82.5337C13.8699 83.3497 13.5338 83.6615 12.5735 83.6615H11V85.3642H20.0508V83.6615H18.8021C17.8418 83.6615 17.5056 83.3497 17.5056 82.5337V77.946H19.1201C20.8487 77.946 22.1151 78.9125 22.2111 80.7371L22.3553 82.8439C22.4513 84.7645 23.7477 85.7963 26.0283 85.7963C28.4532 85.7963 29.0228 84.6202 29.0228 82.1233V80.7791H27.6853V80.7796ZM20.317 75.862H17.5077V71.153H20.0041C22.4051 71.153 23.2689 71.9493 23.2689 73.5093C23.2694 75.1176 22.3335 75.862 20.317 75.862Z" fill="#FAFAFA"/>
</svg>
