<svg width="53" height="53" viewBox="0 0 53 53" fill="none" xmlns="http://www.w3.org/2000/svg">
<path fill-rule="evenodd" clip-rule="evenodd" d="M45.468 14.7121C44.8263 14.7121 44.2108 14.967 43.757 15.4207C43.3033 15.8745 43.0484 16.49 43.0484 17.1317C43.0484 17.9739 43.4608 18.7123 44.1128 19.146L35.9073 36.7567L37.6215 13.3058C38.2436 13.2531 38.8214 12.9621 39.2341 12.4935C39.6468 12.0248 39.8625 11.4149 39.8361 10.791C39.8098 10.1672 39.5434 9.57761 39.0926 9.14549C38.6419 8.71336 38.0416 8.47208 37.4172 8.47205C36.7755 8.47205 36.16 8.72698 35.7062 9.18075C35.2525 9.63452 34.9976 10.25 34.9976 10.8917C34.9976 11.9436 35.6685 12.8211 36.6072 13.155L30.9761 36.052L28.1904 10.7935C28.7021 10.6592 29.1549 10.3589 29.4776 9.93964C29.8003 9.52037 29.9748 9.00586 29.9737 8.47677C29.9737 7.83504 29.7187 7.2196 29.265 6.76582C28.8112 6.31205 28.1957 6.05713 27.554 6.05713C26.9123 6.05713 26.2968 6.31205 25.8431 6.76582C25.3893 7.2196 25.1344 7.83504 25.1344 8.47677C25.1344 9.68423 26.0252 10.6584 27.1824 10.8398L24.9372 35.4479L18.412 13.2265C18.8027 13.0238 19.1301 12.7177 19.3585 12.3415C19.587 11.9654 19.7077 11.5337 19.7075 11.0936C19.7075 10.615 19.5656 10.1472 19.2997 9.74931C19.0338 9.3514 18.6559 9.04127 18.2138 8.85814C17.7717 8.675 17.2852 8.62708 16.8158 8.72044C16.3464 8.81381 15.9153 9.04425 15.5769 9.38265C15.2385 9.72104 15.0081 10.1522 14.9147 10.6215C14.8213 11.0909 14.8692 11.5774 15.0524 12.0195C15.2355 12.4617 15.5456 12.8396 15.9436 13.1054C16.3415 13.3713 16.8093 13.5132 17.2878 13.5132C17.3224 13.5132 17.3601 13.5101 17.3939 13.5085L20.2063 36.7575L10.7297 19.8412C11.1976 19.4743 11.514 18.9479 11.6185 18.3626C11.723 17.7772 11.6084 17.1739 11.2964 16.6677C10.9844 16.1615 10.497 15.7879 9.92711 15.6182C9.35724 15.4485 8.74483 15.4946 8.20676 15.7476C7.6687 16.0007 7.24265 16.443 7.00993 16.9902C6.7772 17.5374 6.7541 18.1511 6.94503 18.7142C7.13596 19.2773 7.52755 19.7504 8.04507 20.0432C8.56259 20.336 9.1698 20.428 9.75082 20.3016L17.6901 44.1028C19.5016 49.6381 35.6033 49.7387 38.0182 44.1028L45.1883 19.5207C45.2881 19.5333 45.3635 19.5505 45.4664 19.5505C46.1005 19.5393 46.7048 19.2796 47.1494 18.8273C47.5939 18.375 47.843 17.7662 47.8433 17.1321C47.8435 16.4979 47.5947 15.889 47.1505 15.4364C46.7062 14.9838 46.1021 14.7237 45.468 14.7121ZM27.6554 46.6481C23.5522 46.6481 20.226 45.4116 20.226 43.886C20.226 42.3604 23.5522 41.6439 27.6554 41.6439C31.7585 41.6439 34.6488 42.3604 34.6488 43.886C34.6488 45.4116 31.7578 46.6481 27.6554 46.6481Z" fill="#FAFAFA"/>
</svg>
